<svg width="207" height="153" viewBox="0 0 207 153" fill="none" xmlns="http://www.w3.org/2000/svg">
<path d="M171.69 101.382H155.82C155.468 101.389 155.124 101.492 154.82 101.679C154.11 102.102 153.37 102.484 152.53 102.95C153.336 103.055 154.152 103.03 154.95 102.876C155.82 102.643 156.51 103.194 156.25 104.359C156.13 104.916 155.859 105.424 155.47 105.82C155.123 106.211 154.741 106.566 154.33 106.88C151.338 109.025 147.872 110.31 144.27 110.608H144.09C144.485 110.927 144.964 111.105 145.46 111.117H145.83C146.73 111.117 147.1 111.678 146.76 112.568C146.57 113.033 146.257 113.43 145.86 113.712C145.109 114.224 144.257 114.547 143.37 114.655C142.14 114.828 140.892 114.8 139.67 114.57C138.28 114.348 136.91 114.03 135.53 113.754C135.417 113.748 135.303 113.748 135.19 113.754C135.284 113.884 135.391 114.001 135.51 114.104C136.16 114.602 136.82 115.1 137.51 115.576C138.2 116.053 138.1 116.36 137.51 116.794C136.889 117.227 136.179 117.496 135.44 117.578C134.469 117.714 133.483 117.686 132.52 117.494C132.509 117.56 132.509 117.628 132.52 117.695C132.83 118.521 132.66 119.051 131.86 119.337C131.211 119.562 130.54 119.708 129.86 119.771C128.688 119.906 127.502 119.816 126.36 119.506H126.11C126.1 119.548 126.1 119.592 126.11 119.633C126.177 119.823 126.202 120.028 126.182 120.229C126.162 120.431 126.098 120.626 125.995 120.797C125.893 120.968 125.754 121.112 125.59 121.217C125.426 121.322 125.241 121.386 125.05 121.402C124.443 121.539 123.813 121.51 123.22 121.318C122.265 121.019 121.381 120.506 120.63 119.813C119.748 119.014 118.991 118.07 118.39 117.017C118.29 116.833 118.166 116.665 118.02 116.519C118.105 117.649 118.448 118.739 119.02 119.697C119.1 119.824 119.2 119.93 119.28 120.057C119.36 120.16 119.411 120.284 119.428 120.416C119.445 120.548 119.427 120.683 119.376 120.804C119.325 120.926 119.244 121.031 119.14 121.106C119.037 121.182 118.916 121.226 118.79 121.233C118.485 121.286 118.175 121.286 117.87 121.233C116.933 121.028 116.058 120.585 115.32 119.94C114.59 119.294 113.94 118.563 113.26 117.875C113.087 117.687 112.923 117.489 112.77 117.282C112.77 117.642 112.77 117.864 112.77 118.087C112.77 118.712 112.36 118.966 111.84 118.68C111.566 118.527 111.314 118.335 111.09 118.108C110.002 117.096 109.034 115.947 108.21 114.687C108.084 114.522 107.932 114.382 107.76 114.273C107.286 113.951 106.832 113.597 106.4 113.214C105.929 112.774 105.609 112.181 105.488 111.528C105.367 110.875 105.452 110.199 105.73 109.602C106.296 108.166 107.374 107.024 108.73 106.424C109.24 106.181 109.73 105.969 110.28 105.768C110.659 105.643 110.994 105.403 111.243 105.077C111.492 104.75 111.644 104.353 111.68 103.935C111.782 103.242 112.032 102.583 112.41 102.007L112.73 101.467H95.1301C95.1768 101.599 95.2336 101.726 95.3001 101.848C95.7399 102.515 96.0306 103.28 96.1501 104.083C96.1902 104.445 96.326 104.787 96.5419 105.07C96.7578 105.353 97.0449 105.565 97.3701 105.683L98.8701 106.308C100.21 106.867 101.305 107.936 101.94 109.305C102.329 109.997 102.455 110.819 102.293 111.606C102.132 112.392 101.695 113.084 101.07 113.543C100.883 113.719 100.674 113.869 100.45 113.987C99.9363 114.256 99.5061 114.675 99.2101 115.195C98.41 116.339 97.4872 117.38 96.4601 118.299C96.301 118.44 96.1264 118.561 95.9401 118.659C95.4201 118.913 95.0401 118.659 95.0001 118.055C95.0001 117.822 95.0001 117.589 95.0001 117.229C94.8301 117.43 94.7101 117.547 94.6001 117.684C93.8647 118.659 92.987 119.503 92.0001 120.184C91.3948 120.626 90.7162 120.942 90.0001 121.116C89.718 121.183 89.4286 121.208 89.1401 121.19C88.4001 121.127 88.1401 120.523 88.5901 119.898C89.2639 118.874 89.696 117.693 89.8501 116.456C89.8501 116.456 89.8501 116.456 89.8501 116.339L89.5101 116.89C88.764 118.256 87.739 119.429 86.5101 120.322C85.6067 121.025 84.5112 121.397 83.3901 121.381H83.1401C82.0101 121.265 81.5401 120.618 81.7501 119.39L81.0901 119.538C79.5892 119.866 78.0409 119.866 76.5401 119.538L76.2401 119.453C75.2401 119.104 74.9701 118.638 75.3201 117.494L74.3201 117.621C73.1941 117.752 72.0548 117.592 71.0001 117.155C70.7113 117.037 70.4414 116.873 70.2001 116.667C69.7301 116.265 69.7901 115.884 70.2901 115.534C70.9601 115.057 71.6201 114.559 72.2901 114.072C72.4027 113.99 72.487 113.871 72.5301 113.733L72.1001 113.807C70.02 114.391 67.8814 114.707 65.7301 114.75C64.7574 114.773 63.7896 114.597 62.8801 114.231C62.2943 114.038 61.7735 113.67 61.3801 113.172C61.1945 112.907 61.0556 112.609 60.9701 112.293C60.8101 111.604 61.1801 111.233 61.8501 111.138C62.4012 111.074 62.9486 110.978 63.4901 110.852C63.5801 110.852 63.6601 110.757 63.8401 110.661C62.3625 110.529 60.8997 110.252 59.4701 109.835C57.3025 109.189 55.249 108.173 53.3901 106.827C52.7859 106.432 52.2787 105.891 51.9101 105.248C51.7188 104.891 51.59 104.5 51.5301 104.094C51.4201 103.236 51.9101 102.791 52.7201 102.886C53.5301 102.982 54.3201 103.013 55.1201 103.066V102.939C55.0101 102.876 54.9101 102.791 54.8001 102.738C54.1901 102.41 53.5701 102.113 52.9901 101.742C52.6353 101.524 52.2303 101.414 51.8201 101.425H34.8201V67.6022H37.3001C38.1301 67.6022 38.9501 67.6022 39.7801 67.6022H42.2701C42.2701 66.829 42.1701 66.1405 42.1801 65.4837C42.1806 65.1212 42.2451 64.7619 42.3701 64.4244C42.6901 63.6406 43.3101 63.5876 43.8001 64.2761C44.0097 64.6084 44.266 64.9049 44.5601 65.1553L44.3201 64.5622C43.3436 62.4726 42.9383 60.1354 43.1501 57.8146C43.2313 57.2072 43.3618 56.6082 43.5401 56.0245C43.6251 55.7546 43.75 55.5008 43.9101 55.2724C43.9735 55.1186 44.0813 54.99 44.218 54.9051C44.3547 54.8202 44.5133 54.7833 44.671 54.7998C44.8287 54.8162 44.9774 54.8852 45.0958 54.9967C45.2142 55.1083 45.2962 55.2567 45.3301 55.4207C45.5271 55.9022 45.7826 56.3544 46.0901 56.766C46.7796 57.7295 47.5905 58.5884 48.5001 59.3188C48.4201 59.1281 48.3601 58.9375 48.2801 58.7468C47.3174 56.6103 46.8218 54.2713 46.8301 51.9039C46.8756 51.2746 46.9558 50.6485 47.0701 50.029C47.0975 49.8983 47.1448 49.7731 47.2101 49.6583C47.3801 49.2664 47.6001 48.9168 48.0601 48.9168C48.5201 48.9168 48.7101 49.2558 48.8901 49.6159C49.6347 50.9804 50.5799 52.2105 51.6901 53.2598L51.9101 53.3763C51.7201 52.8255 51.5401 52.3171 51.3901 51.8616C50.2893 48.4067 49.8176 44.7619 50.0001 41.1206C50.0194 40.6182 50.1104 40.1218 50.2701 39.6483C50.2868 39.5118 50.3457 39.385 50.4374 39.2876C50.5292 39.1901 50.6487 39.1275 50.7775 39.1094C50.9063 39.0913 51.0371 39.1187 51.1497 39.1874C51.2623 39.2561 51.3503 39.3623 51.4001 39.4894C51.6705 39.9524 51.8983 40.4419 52.0801 40.9512C52.6512 42.4707 53.4221 43.8972 54.3701 45.1882C54.442 45.2838 54.5397 45.354 54.6501 45.3895L54.4401 44.2772C54.0666 42.183 53.909 40.052 53.9701 37.9217C53.9701 36.7459 53.9701 35.5595 54.1001 34.3943C54.2207 33.6643 54.4256 32.9528 54.7101 32.2758C54.8069 32.0326 54.9538 31.8154 55.1401 31.6402C55.2155 31.5471 55.3136 31.4778 55.4238 31.44C55.5339 31.4021 55.6518 31.3971 55.7644 31.4256C55.877 31.4541 55.9801 31.5149 56.0622 31.6013C56.1444 31.6877 56.2025 31.7965 56.2301 31.9156C56.2833 32.0581 56.317 32.2079 56.3301 32.3605C56.7731 35.8594 57.7954 39.248 59.3501 42.3706C61.5204 47.0369 64.5538 51.1938 68.2701 54.5945C71.0765 57.2314 73.5473 60.2438 75.6201 63.5559C76.3301 64.6151 77.0101 65.7909 77.6201 66.9349C77.7177 67.147 77.8749 67.3219 78.07 67.4357C78.2651 67.5494 78.4887 67.5965 78.7101 67.5705C84.2501 67.5705 89.7901 67.5705 95.3301 67.5705H128.69C128.877 67.5599 129.064 67.5599 129.25 67.5705C129.392 67.5937 129.538 67.5656 129.663 67.4907C129.788 67.4157 129.886 67.2983 129.94 67.1574C130.45 66.257 130.94 65.3672 131.51 64.488C133.924 60.5773 136.808 57.0165 140.09 53.8954C145.516 48.7721 149.351 42.029 151.09 34.5532C151.25 33.907 151.3 33.2185 151.41 32.5512C151.441 32.2947 151.498 32.0425 151.58 31.7991C151.61 31.6926 151.666 31.5966 151.743 31.5212C151.82 31.4459 151.915 31.3941 152.017 31.3712C152.12 31.3484 152.226 31.3555 152.325 31.3916C152.425 31.4278 152.513 31.4918 152.58 31.5767C152.81 31.828 152.999 32.1179 153.14 32.4347C153.545 33.2779 153.754 34.2111 153.75 35.157C153.75 37.3602 153.75 39.5741 153.63 41.7774C153.521 42.8872 153.357 43.9903 153.14 45.0823C153.14 45.1776 153.14 45.2835 153.14 45.3895L153.27 45.506C153.332 45.3775 153.402 45.2536 153.48 45.1352C154.451 43.7969 155.232 42.3161 155.8 40.7393C155.964 40.3166 156.154 39.9061 156.37 39.5106C156.436 39.3996 156.53 39.3108 156.641 39.2545C156.753 39.1982 156.877 39.1768 157 39.1928C157.136 39.2128 157.261 39.2797 157.357 39.3832C157.453 39.4867 157.514 39.6208 157.53 39.7648C157.68 40.4613 157.774 41.17 157.81 41.8833C157.876 45.6235 157.262 49.3421 156 52.8361C155.94 52.995 155.89 53.1539 155.78 53.4717C156.01 53.2598 156.14 53.1645 156.24 53.0585C157.312 52.0253 158.22 50.8165 158.93 49.4782C158.988 49.3104 159.093 49.1651 159.23 49.0612C159.368 48.9572 159.531 48.8996 159.7 48.8956C159.877 48.9148 160.045 48.9867 160.185 49.1029C160.325 49.2191 160.43 49.375 160.49 49.5524C160.871 50.5006 161.019 51.5355 160.92 52.5607C160.805 54.5969 160.337 56.5934 159.54 58.4502C159.418 58.736 159.325 59.0341 159.26 59.34C159.383 59.2503 159.5 59.1512 159.61 59.0434C160.22 58.3655 160.87 57.7087 161.43 56.9884C161.81 56.4522 162.145 55.8815 162.43 55.283C162.77 54.6263 163.29 54.5203 163.74 55.1241C164.213 55.8478 164.493 56.6931 164.55 57.571C164.785 59.9543 164.38 62.3595 163.38 64.5092L163.14 65.0494C163.134 65.0951 163.134 65.1414 163.14 65.1871C163.348 65.0492 163.526 64.8649 163.66 64.6469C163.79 64.4668 163.89 64.2761 164.02 64.1067C164.084 63.9844 164.179 63.8839 164.295 63.8173C164.411 63.7506 164.542 63.7205 164.674 63.7305C164.805 63.7406 164.931 63.7903 165.037 63.8739C165.143 63.9574 165.224 64.0713 165.27 64.202C165.441 64.5504 165.539 64.933 165.56 65.3248C165.56 65.8862 165.5 66.4582 165.47 67.0196C165.47 67.1679 165.47 67.3162 165.41 67.5387C166.113 67.5806 166.817 67.5806 167.52 67.5387H171.7L171.69 101.382ZM87.0001 109.104C85.7806 109.78 84.6917 110.693 83.7901 111.795C83.8557 111.842 83.9262 111.881 84.0001 111.911C84.1375 111.96 84.2778 111.999 84.4201 112.028C85.6062 112.224 86.8139 112.224 88.0001 112.028C88.6499 111.915 89.2844 111.719 89.8901 111.445C90.5671 111.156 91.1168 110.608 91.4301 109.909C91.3326 109.719 91.2586 109.516 91.2101 109.305C91.1849 109.084 91.1849 108.86 91.2101 108.638C90.5701 108.638 89.9701 108.638 89.3801 108.638C89.0503 108.607 88.7207 108.701 88.4501 108.903C87.5201 109.591 86.5701 110.248 85.6201 110.916C85.5001 111 85.3701 111.074 85.2401 111.149C85.6901 110.577 86.1701 110.089 86.6401 109.539C86.7716 109.405 86.892 109.26 87.0001 109.104L87.3401 108.914L87.2801 108.818L87.0001 109.104ZM161.17 60.2721C161.102 60.4958 161.022 60.7151 160.93 60.9289C159.801 63.0164 158.538 65.0195 157.15 66.9243L156.79 67.4645C156.854 67.5094 156.925 67.5417 157 67.5599C158.2 67.5599 159.4 67.5599 160.6 67.5599C160.687 67.551 160.771 67.5228 160.847 67.4772C160.923 67.4315 160.988 67.3695 161.04 67.2951C162.317 65.5392 163.23 63.518 163.72 61.3632C164.102 59.7618 164.085 58.0828 163.67 56.4906C163.588 56.0761 163.377 55.703 163.07 55.4313C162.579 56.5997 161.876 57.6543 161 58.5349C160.2 59.3823 159.34 60.1874 158.52 61.003C158.349 61.1583 158.198 61.3363 158.07 61.5327C156.975 63.4656 155.78 65.3328 154.49 67.1256C154.415 67.2421 154.352 67.3663 154.3 67.4963C154.38 67.4963 154.41 67.5705 154.45 67.5705C154.86 67.5705 155.28 67.5705 155.69 67.5705C155.853 67.5864 156.017 67.5555 156.165 67.4809C156.313 67.4063 156.439 67.2909 156.53 67.1468C158.123 65.1371 159.583 63.0136 160.9 60.7912C160.995 60.6197 161.099 60.4535 161.21 60.2933L161.17 60.2721ZM52.6801 46.3852C52.8001 46.6076 52.9501 46.8089 53.0501 47.0313C55.1221 51.6389 57.718 55.961 60.7801 59.9014C62.7801 62.5495 65.2501 64.8164 67.4101 67.3162C67.4832 67.4245 67.589 67.503 67.7101 67.5387C68.3122 67.5966 68.918 67.5966 69.5201 67.5387L68.0001 65.8862C65.9001 63.5876 63.7601 61.342 61.7101 58.9904C59.0383 55.99 56.9488 52.463 55.5601 48.6096C55.2747 47.7257 54.8298 46.909 54.2501 46.2051C52.9954 44.6846 52.0157 42.9323 51.3601 41.0359C51.2477 40.6283 51.0571 40.2496 50.8001 39.9237C50.7507 40.0473 50.7106 40.1748 50.6801 40.305C50.617 40.6551 50.5736 41.0088 50.5501 41.3643C50.4695 43.6198 50.6406 45.8776 51.0601 48.0906C51.6563 51.5609 53.0278 54.8297 55.0601 57.624C56.7401 59.9226 58.3901 62.2424 60.0601 64.5516C60.7001 65.4413 61.3701 66.3099 62.0601 67.1891C62.1212 67.3015 62.2084 67.3955 62.3134 67.4622C62.4184 67.5289 62.5377 67.5662 62.6601 67.5705H66.0001C66.1085 67.5502 66.2154 67.5219 66.3201 67.4857L65.8901 66.9561C64.4801 65.3248 63.0201 63.7783 61.6701 62.0623C58.0549 57.5241 55.0928 52.4448 52.8801 46.989C52.8129 46.784 52.7561 46.5754 52.7101 46.364L52.6801 46.3852ZM154.77 47.0419C154.717 47.2733 154.646 47.5 154.56 47.7199C154.01 48.938 153.48 50.1773 152.88 51.3743C150.585 56.0368 147.691 60.3396 144.28 64.1596C143.45 65.0812 142.67 66.0345 141.86 66.9773C141.73 67.1256 141.6 67.2951 141.39 67.5705H142.1C142.95 67.5705 143.8 67.5705 144.64 67.5705C144.893 67.5984 145.148 67.5519 145.377 67.436C145.607 67.3201 145.801 67.1394 145.94 66.9137C148.28 63.6618 150.65 60.3781 153 57.2003C153.922 55.8964 154.681 54.4724 155.26 52.9632C156.349 50.1414 156.971 47.1424 157.1 44.0972C157.1 43.0379 157.1 41.9786 157.1 40.9194C157.112 40.5885 157.024 40.2622 156.85 39.9872C156.784 40.0634 156.724 40.1448 156.67 40.2309C156.54 40.5274 156.41 40.824 156.3 41.1312C155.522 43.2837 154.361 45.2578 152.88 46.9466C152.688 47.1702 152.542 47.4335 152.45 47.7199C151.943 49.2715 151.317 50.7771 150.58 52.2217C148.929 55.3578 146.868 58.2319 144.46 60.7594C142.46 62.8779 140.53 64.9965 138.57 67.115C138.47 67.2315 138.38 67.3692 138.19 67.6128C138.74 67.6128 139.19 67.6128 139.59 67.6128C139.753 67.6298 139.918 67.6039 140.07 67.5374C140.222 67.4709 140.356 67.3658 140.46 67.2315C141.66 65.8756 142.89 64.5516 144.11 63.2169C144.64 62.6343 145.19 62.0623 145.7 61.4585C149.168 57.3051 152.088 52.6727 154.38 47.6881C154.496 47.4638 154.627 47.248 154.77 47.0419ZM35.0901 101.064H171.4C171.53 100.217 171.49 68.3861 171.4 67.92H35.0901V101.064ZM152.25 32.2122H152.1L152.01 32.7101C151.87 33.5681 151.78 34.4473 151.56 35.2841C149.749 42.6892 145.903 49.3582 140.51 54.4462C136.703 58.0884 133.43 62.3119 130.8 66.9773C130.71 67.1362 130.64 67.3162 130.53 67.5493C130.73 67.5366 130.93 67.5366 131.13 67.5493C131.328 67.5765 131.528 67.5407 131.706 67.4463C131.885 67.352 132.032 67.2034 132.13 67.0196C132.48 66.4476 132.89 65.9604 133.28 65.3884C135.714 62.036 138.447 58.9393 141.44 56.141C142.415 55.2263 143.331 54.2425 144.18 53.1962C147.05 49.6182 149.253 45.4952 150.67 41.0465L151.21 39.4046C151.25 39.5101 151.25 39.6275 151.21 39.733C150.86 40.877 150.55 42.0316 150.15 43.1544C148.411 48.3066 145.554 52.9543 141.81 56.7236C138.681 59.8492 135.863 63.3063 133.4 67.0408C133.31 67.1785 133.25 67.3268 133.17 67.4751C133.53 67.6552 133.71 67.4751 133.92 67.2421C134.74 66.5218 135.05 66.5642 135.64 67.5599C135.92 67.544 136.2 67.544 136.48 67.5599C136.734 67.5891 136.99 67.5489 137.224 67.4432C137.459 67.3375 137.664 67.1698 137.82 66.9561C139.82 64.7528 141.82 62.5813 143.82 60.4098C146.109 58.0333 148.093 55.348 149.72 52.423C151.597 49.0702 152.72 45.3041 153 41.4172C153.13 39.2987 153.13 37.1802 153.09 35.1252C153.014 34.3652 152.849 33.618 152.6 32.9007C152.512 32.6462 152.395 32.4042 152.25 32.1804V32.2122ZM55.6201 32.2758L55.4801 32.2228C55.3601 32.4453 55.2201 32.6465 55.1201 32.8796C54.7681 33.6979 54.584 34.5861 54.5801 35.4854C54.5801 36.926 54.5801 38.3771 54.5801 39.8177C54.6231 42.1358 54.9594 44.4373 55.5801 46.6606C56.7288 50.5373 58.6141 54.1241 61.1201 57.2003C62.3001 58.6938 63.6101 60.0709 64.8801 61.4373C66.6001 63.344 68.3401 65.2401 70.0801 67.1468C70.2601 67.348 70.4201 67.5916 70.7401 67.5811H72.0901L72.2301 67.3268C72.5901 66.6913 73.0001 66.6065 73.5501 67.0514C73.7201 67.1785 73.8701 67.3268 74.0301 67.4645C74.0993 67.5286 74.1881 67.5639 74.2801 67.5639C74.372 67.5639 74.4608 67.5286 74.5301 67.4645C74.5301 67.3798 74.4701 67.3162 74.4401 67.2633C71.997 63.515 69.1918 60.0466 66.0701 56.9143C65.4901 56.3529 64.9301 55.7703 64.4001 55.1559C60.599 50.7035 57.8563 45.3543 56.4001 39.5529C56.3904 39.4685 56.3904 39.3831 56.4001 39.2987C56.517 39.5116 56.6077 39.7394 56.6701 39.9766C58.5663 46.5118 62.1432 52.3585 67.0001 56.8613C70.2116 59.8918 73.0868 63.2998 75.5701 67.0196C76.0201 67.6552 76.3801 67.7611 77.1501 67.4539C77.1345 67.3923 77.1145 67.3321 77.0901 67.2739C76.6601 66.5324 76.2301 65.7803 75.7801 65.0494C73.5815 61.3568 70.9131 58.0027 67.8501 55.0817C63.8228 51.3912 60.5843 46.8341 58.3501 41.7138C56.9808 38.8138 56.0784 35.692 55.6801 32.477C55.6643 32.3982 55.6442 32.3204 55.6201 32.244V32.2758ZM159.62 49.5524C159.36 50.0079 159.15 50.3998 158.91 50.7811C158.051 52.0735 157.043 53.2477 155.91 54.2767C155.244 54.8721 154.685 55.5898 154.26 56.3952C154.037 56.8174 153.779 57.2179 153.49 57.5922L146.67 67.0196L146.22 67.6552C146.66 67.6552 146.98 67.6552 147.3 67.6552C147.433 67.6658 147.566 67.6402 147.687 67.5808C147.807 67.5215 147.912 67.4304 147.99 67.3162C151.164 63.5121 154.125 59.5155 156.86 55.3466C156.99 55.1559 157.12 54.9758 157.24 54.7851C156.056 57.0519 154.719 59.2255 153.24 61.289C151.77 63.4076 150.24 65.4519 148.72 67.5811C148.838 67.6127 148.959 67.6339 149.08 67.6446H152.92C153.053 67.6471 153.184 67.6121 153.3 67.5433C153.416 67.4744 153.513 67.3741 153.58 67.2527C155.222 65.0133 156.699 62.6442 158 60.1662C158.827 58.6247 159.453 56.9713 159.86 55.2512C160.226 53.8745 160.339 52.4359 160.19 51.0142C160.178 50.4633 159.984 49.9344 159.64 49.5206L159.62 49.5524ZM48.0001 49.5312C47.8758 49.7436 47.7687 49.9669 47.6801 50.1985C47.5617 50.7595 47.4881 51.3299 47.4601 51.9039C47.4529 54.1851 47.9458 56.4369 48.9001 58.482C50.3533 61.6307 52.1343 64.5974 54.2101 67.3268C54.284 67.4294 54.382 67.5097 54.4942 67.5599C54.6065 67.61 54.7291 67.6283 54.8501 67.6128H58.5701C58.7199 67.6235 58.8702 67.6235 59.0201 67.6128C55.8078 63.4927 52.8771 59.1351 50.2501 54.5733C50.3893 54.6875 50.5079 54.8275 50.6001 54.9864C53.3986 59.2939 56.4443 63.4151 59.7201 67.3268C59.8201 67.4539 59.9601 67.634 60.0901 67.6446C60.5226 67.7244 60.9663 67.7027 61.3901 67.5811L61.0801 67.1256C59.6601 65.1871 58.2401 63.2593 56.8401 61.3102C55.7101 59.7425 54.5701 58.1854 53.5301 56.5541C52.9953 55.7022 52.3676 54.9201 51.6601 54.2237C50.2852 52.9744 49.1365 51.4704 48.2701 49.7854C48.1857 49.6942 48.0954 49.6093 48.0001 49.5312ZM134 108.553C137.094 109.631 140.347 110.102 143.6 109.941C147.335 109.734 150.943 108.432 154.02 106.181C154.491 105.801 154.914 105.36 155.28 104.867C155.452 104.62 155.565 104.333 155.61 104.03C155.7 103.585 155.53 103.405 155.12 103.48C153.886 103.601 152.644 103.601 151.41 103.48C151.044 103.466 150.678 103.502 150.32 103.585C147.939 104.328 145.48 104.758 143 104.867C141.09 104.931 139.16 104.867 137.24 104.867C136.615 104.861 135.996 104.99 135.42 105.248C138.125 105.745 140.865 105.99 143.61 105.979C146.367 105.977 149.114 105.621 151.79 104.92C151.752 104.981 151.696 105.025 151.63 105.047L151.28 105.185C149.136 105.909 146.922 106.378 144.68 106.583C142.064 106.806 139.436 106.806 136.82 106.583L135.33 106.509C135.55 107.653 135.53 107.685 134 108.553ZM55.5601 104.867C61.1001 106.488 66.6901 106.244 72.2801 105.323C71.6537 105.023 70.9649 104.898 70.2801 104.962C69.8901 104.962 69.4901 104.962 69.1001 104.962C65.1132 105.177 61.1195 104.716 57.2701 103.596C57.0712 103.54 56.8657 103.515 56.6601 103.522C55.3042 103.681 53.9359 103.681 52.5801 103.522C52.2801 103.522 52.1001 103.649 52.1501 103.988C52.1744 104.27 52.2674 104.54 52.4201 104.772C52.7525 105.27 53.1498 105.716 53.6001 106.096C56.6013 108.346 60.1313 109.673 63.8001 109.93C66.5273 110.127 69.2665 109.851 71.9101 109.115C72.4901 108.956 73.0601 108.765 73.6401 108.585C72.8401 108.172 72.0201 107.854 72.4501 106.594C69.6064 106.849 66.749 106.888 63.9001 106.71C61.0484 106.544 58.2368 105.922 55.5601 104.867ZM53.5601 67.6128C53.4301 67.3904 53.3701 67.2633 53.2901 67.1468C52.009 65.3725 50.8238 63.5229 49.7401 61.6068C49.5987 61.3931 49.4342 61.1976 49.2501 61.0242C48.3001 60.0603 47.3201 59.1175 46.3901 58.1324C45.7394 57.4646 45.2016 56.6835 44.8001 55.8232C44.7401 55.6961 44.6701 55.5796 44.5301 55.336C44.3324 55.7314 44.1554 56.138 44.0001 56.5541C43.6301 58.0866 43.6301 59.693 44.0001 61.2255C44.4923 63.4266 45.408 65.4965 46.6901 67.3056C46.7626 67.4099 46.8604 67.4914 46.973 67.5417C47.0856 67.5921 47.209 67.6093 47.3301 67.5917H50.4901C50.6599 67.6024 50.8302 67.6024 51.0001 67.5917C49.2608 65.2794 47.7339 62.7965 46.4401 60.1768C46.5808 60.3018 46.6994 60.4525 46.7901 60.6217C48.1416 62.9547 49.6593 65.1751 51.3301 67.2633C51.4501 67.4222 51.6301 67.634 51.7901 67.6446C52.3101 67.6128 52.8801 67.5811 53.5401 67.5811L53.5601 67.6128ZM130.28 110.608C131.196 111.324 132.207 111.891 133.28 112.293C135.926 113.367 138.719 113.982 141.55 114.115C142.646 114.207 143.747 114.033 144.77 113.606C145.288 113.404 145.733 113.033 146.04 112.547C146.138 112.441 146.202 112.306 146.224 112.159C146.245 112.013 146.223 111.863 146.16 111.731C144.937 111.734 143.733 111.41 142.66 110.788C142.435 110.688 142.194 110.634 141.95 110.63C140.484 110.584 139.023 110.422 137.58 110.142L135.87 109.772C138.392 110.891 141.058 111.605 143.78 111.89C143.447 111.914 143.113 111.914 142.78 111.89C141.63 111.763 140.48 111.668 139.34 111.466C136.39 110.918 133.508 110.015 130.75 108.776C130.416 108.599 130.042 108.522 129.67 108.553C130.6 109.528 130.66 109.708 130.26 110.577L130.28 110.608ZM78.2001 108.638C77.9301 108.638 77.7601 108.638 77.6001 108.712C77.4231 108.768 77.2494 108.835 77.0801 108.914C73.7915 110.394 70.3253 111.385 66.7801 111.858C65.8401 111.975 64.8901 112.007 63.9501 112.07C64.8101 111.837 65.6901 111.721 66.5501 111.541C67.4101 111.36 68.2801 111.149 69.1401 110.905C69.9782 110.7 70.7904 110.39 71.5601 109.983C71.4589 109.952 71.3513 109.952 71.2501 109.983C69.4991 110.403 67.7143 110.644 65.9201 110.704C65.5756 110.721 65.2369 110.803 64.9201 110.947C63.9063 111.497 62.7886 111.797 61.6501 111.827C61.6501 111.827 61.5901 111.827 61.5301 111.911C61.5133 112.081 61.5355 112.252 61.5947 112.411C61.6539 112.569 61.7484 112.711 61.8701 112.822C62.2641 113.278 62.7749 113.602 63.3401 113.754C64.2675 114.062 65.2401 114.187 66.2101 114.125C68.0879 114.024 69.951 113.718 71.7701 113.214C73.4744 112.778 75.1134 112.094 76.6401 111.18C76.9201 111 77.1801 110.788 77.4301 110.608C77.0501 109.729 77.1401 109.486 78.1801 108.606L78.2001 108.638ZM134.83 115.259C134.73 115.259 134.68 115.322 134.65 115.259L134.15 115.025C132.3 114.044 130.584 112.8 129.05 111.329C128.965 111.222 128.857 111.137 128.736 111.082C128.614 111.027 128.482 111.003 128.35 111.011C127.214 111.12 126.07 111.06 124.95 110.831C124.807 110.82 124.663 110.82 124.52 110.831C124.559 110.907 124.606 110.978 124.66 111.043C126.16 112.399 127.66 113.839 129.2 115.11C130.055 115.826 131.038 116.349 132.091 116.648C133.143 116.947 134.242 117.015 135.32 116.847C135.968 116.803 136.591 116.568 137.12 116.17C135.96 115.216 134.79 114.305 133.68 113.341C132.96 112.845 132.184 112.446 131.37 112.155C132.39 113.329 133.546 114.361 134.81 115.227L134.83 115.259ZM121.83 112.907C121.867 113.034 121.914 113.158 121.97 113.278C122.64 114.538 123.31 115.788 123.97 117.049C124.358 117.756 124.971 118.293 125.7 118.563C127.498 119.254 129.451 119.346 131.3 118.828C131.46 118.813 131.612 118.752 131.741 118.651C131.87 118.55 131.97 118.414 132.03 118.256C131.733 117.706 131.278 117.272 130.73 117.017C129.97 116.508 129.18 116.021 128.46 115.449C127.46 114.676 126.61 113.829 125.7 113.013L125.24 112.621C126.195 114.343 127.388 115.903 128.78 117.25C128.619 117.225 128.468 117.155 128.34 117.049C127.62 116.466 126.87 115.915 126.2 115.269C125.53 114.623 124.76 113.765 124.05 113.002C123.91 112.854 123.8 112.663 123.54 112.695C123 112.748 122.48 112.801 121.86 112.875L121.83 112.907ZM72.6501 115.545V115.47C73.3101 114.962 73.9801 114.475 74.6501 113.945C75.3072 113.436 75.9077 112.85 76.4401 112.197C76.0801 112.314 75.7601 112.504 75.4401 112.632C74.8636 112.887 74.3327 113.246 73.8701 113.691C72.8701 114.506 71.8701 115.29 70.8701 116.085C70.8152 116.132 70.7649 116.186 70.7201 116.244C71.6542 116.843 72.7408 117.12 73.8301 117.038C75.7049 116.936 77.4978 116.192 78.9401 114.92C80.3201 113.733 81.6501 112.483 83.0001 111.265C83.1001 111.17 83.1801 111.053 83.3401 110.873C83.1702 110.863 82.9999 110.863 82.8301 110.873C81.8424 111.077 80.8336 111.141 79.8301 111.064C79.6098 111.04 79.3873 111.07 79.1794 111.15C78.9715 111.231 78.7836 111.361 78.6301 111.53C77.2004 112.886 75.6104 114.04 73.9001 114.962L72.6501 115.545ZM82.4601 112.727C82.3903 112.718 82.3198 112.718 82.2501 112.727L81.7401 113.193C80.2077 114.728 78.5014 116.055 76.6601 117.144C76.4567 117.253 76.271 117.396 76.1101 117.568C75.9357 117.756 75.7752 117.957 75.6301 118.172C75.6946 118.337 75.8004 118.48 75.936 118.587C76.0717 118.693 76.2321 118.758 76.4001 118.775C76.8401 118.893 77.2881 118.975 77.7401 119.019C79.1183 119.203 80.5182 119.048 81.8301 118.563C82.6071 118.293 83.2647 117.732 83.6801 116.985C84.3401 115.735 85.0201 114.485 85.6801 113.225C85.7236 113.096 85.7603 112.966 85.7901 112.833C85.3641 112.839 84.9386 112.8 84.5201 112.716C84.326 112.653 84.1179 112.658 83.9269 112.731C83.7358 112.803 83.572 112.939 83.4601 113.119C82.2653 114.574 80.9011 115.862 79.4001 116.953C79.2391 117.066 79.0722 117.168 78.9001 117.261L78.8201 117.155C80.2343 115.857 81.4697 114.356 82.4901 112.695L82.4601 112.727ZM153.73 101.53V101.435H153.44H147C146.837 101.419 146.673 101.419 146.51 101.435C144.953 101.763 143.375 101.976 141.79 102.071C141.608 102.065 141.431 102.129 141.29 102.251C140.518 102.979 139.645 103.575 138.7 104.02C138.56 104.101 138.427 104.193 138.3 104.295C138.54 104.295 138.66 104.295 138.78 104.295C141.455 104.404 144.134 104.245 146.78 103.818C148.965 103.472 151.095 102.809 153.11 101.848C153.31 101.764 153.54 101.626 153.76 101.499L153.73 101.53ZM54.0001 101.382C56.3049 102.719 58.8306 103.575 61.4401 103.903C64.0888 104.305 66.768 104.433 69.4401 104.285C69.3555 104.21 69.2651 104.142 69.1701 104.083C68.1639 103.618 67.2327 102.989 66.4101 102.219C66.2591 102.113 66.0813 102.057 65.9001 102.06C64.7601 101.922 63.6001 101.806 62.4601 101.658C61.6081 101.494 60.7456 101.398 59.8801 101.372C58.1201 101.372 56.3601 101.372 54.6101 101.372L54.0001 101.382ZM128.08 103.66C130.176 104.804 132.572 105.176 134.89 104.719C137.3 104.253 140.38 102.664 141.01 101.541C140.958 101.519 140.905 101.501 140.85 101.488L132.44 101.562C132.34 101.562 132.24 101.689 132.05 101.816C134.098 102.067 136.161 102.145 138.22 102.05C137.968 102.153 137.707 102.228 137.44 102.272C135.323 102.649 133.174 102.784 131.03 102.674C130.805 102.647 130.577 102.668 130.36 102.738C129.58 102.95 128.83 103.31 128.07 103.66H128.08ZM68.8801 101.912C71.1104 102.062 73.3495 101.963 75.5601 101.615C74.9879 101.522 74.4075 101.497 73.8301 101.541C73.2401 101.541 72.6401 101.414 72.0401 101.382C71.4401 101.35 70.8901 101.382 70.3101 101.382H66.6901C67.4001 102.632 70.4601 104.221 72.8801 104.655C75.1717 105.129 77.5476 104.755 79.6101 103.596C78.9501 103.299 78.2901 102.992 77.6101 102.717C77.3473 102.599 77.0652 102.538 76.7801 102.537C75.1864 102.637 73.5877 102.598 72.0001 102.42C71.0001 102.283 69.9201 102.092 68.8701 101.912H68.8801ZM111.08 110.28L110.95 110.344C111.123 111.947 111.531 113.513 112.16 114.983C112.934 116.712 114.106 118.205 115.57 119.326C116.248 119.865 117.019 120.258 117.84 120.481C118.133 120.576 118.447 120.576 118.74 120.481C117.5 118.765 117.29 116.763 117 114.75L115.68 114.506L116.78 118.383C116.618 118.245 116.485 118.072 116.39 117.875C115.82 116.731 115.27 115.587 114.72 114.443C114.641 114.195 114.486 113.983 114.28 113.839C113.066 113.083 112.054 112.011 111.34 110.725C111.25 110.555 111.16 110.418 111.07 110.28H111.08ZM89.0801 120.534C89.3478 120.524 89.6148 120.499 89.8801 120.46C90.8251 120.212 91.702 119.733 92.4401 119.061C93.7178 117.944 94.7775 116.573 95.5601 115.025C95.6116 114.931 95.6551 114.832 95.6901 114.729C96.0101 113.511 96.3401 112.293 96.6901 111.064C96.6901 110.852 96.6901 110.608 96.7701 110.386C96.5831 110.497 96.4303 110.662 96.3301 110.863C95.8393 111.796 95.1556 112.6 94.3301 113.214C93.5124 113.756 92.8948 114.579 92.5801 115.545C92.1573 116.611 91.6061 117.615 90.9401 118.532C91.3891 117.22 91.7435 115.875 92.0001 114.506L91.4601 114.612C90.6901 114.676 90.7701 114.729 90.6701 115.481C90.5572 117.231 90.0198 118.92 89.1101 120.385C89.1101 120.385 89.0701 120.428 89.1001 120.534H89.0801ZM121 112.822L120.85 112.907C121.447 114.947 122.301 116.893 123.39 118.691C123.27 118.691 123.22 118.691 123.2 118.691C123.03 118.489 122.86 118.299 122.71 118.097C121.537 116.596 120.531 114.958 119.71 113.214C119.62 113.023 119.59 112.737 119.21 112.748L119.45 113.225C119.54 113.355 119.596 113.508 119.613 113.668C119.631 113.828 119.608 113.99 119.549 114.138C119.49 114.286 119.395 114.416 119.274 114.514C119.153 114.612 119.011 114.675 118.86 114.697C118.59 114.782 118.3 114.814 117.99 114.877C118.011 114.981 118.037 115.084 118.07 115.184C118.735 116.77 119.722 118.18 120.96 119.316C121.637 119.93 122.427 120.388 123.28 120.661C123.83 120.868 124.43 120.868 124.98 120.661C125.54 120.417 125.62 119.972 125.15 119.602C124.521 119.063 123.992 118.406 123.59 117.663C122.8 116.265 122.05 114.824 121.28 113.426C121.24 113.161 121.13 112.992 121 112.822ZM86.7101 112.822C86.5901 112.992 86.4901 113.098 86.4201 113.214C86.1801 113.701 85.9601 114.189 85.7001 114.665C84.9008 116.54 83.7859 118.245 82.4101 119.697C82.0901 119.972 82.1501 120.311 82.5201 120.544C82.9017 120.775 83.3473 120.857 83.7801 120.777C84.9019 120.572 85.9438 120.028 86.7801 119.21C87.9533 118.129 88.8915 116.792 89.5301 115.29C89.5805 115.156 89.6207 115.018 89.6501 114.877C89.3201 114.803 89.0101 114.761 88.7201 114.665C88.5868 114.637 88.462 114.575 88.3561 114.484C88.2502 114.394 88.1663 114.278 88.1114 114.146C88.0565 114.014 88.0323 113.871 88.0408 113.727C88.0493 113.583 88.0902 113.444 88.1601 113.32C88.2301 113.129 88.3201 112.96 88.4001 112.78L88.2601 112.695C88.1501 112.886 88.0301 113.076 87.9301 113.278C87.0053 115.258 85.8312 117.097 84.4401 118.744C84.3573 118.833 84.2669 118.915 84.1701 118.987C85.8701 115.788 86.7501 113.765 86.7501 112.812L86.7101 112.822ZM128.34 104.443C127.614 104.235 126.871 104.103 126.12 104.052C124.671 104.183 123.217 103.859 121.94 103.119C121.805 103.033 121.645 103.003 121.49 103.035C120.8 103.225 120.13 103.458 119.35 103.702C121.234 104.601 123.285 105.039 125.35 104.984C123.48 105.356 121.556 105.294 119.71 104.804L118.98 105.524C119.734 106.083 120.613 106.423 121.53 106.509C123.593 106.654 125.658 106.242 127.53 105.312C127.701 105.233 127.86 105.126 128 104.994C128.143 104.82 128.271 104.632 128.38 104.433L128.34 104.443ZM88.3101 103.702C87.5301 103.448 86.8501 103.215 86.1701 103.024C86.0084 103.001 85.8445 103.043 85.7101 103.141C84.4602 103.881 83.024 104.192 81.6001 104.03C80.8653 104.062 80.1397 104.215 79.4501 104.486C79.5701 105.026 79.9201 105.174 80.2501 105.333C81.5194 105.934 82.8686 106.323 84.2501 106.488C85.6683 106.711 87.1167 106.455 88.3901 105.757C88.5261 105.675 88.6564 105.583 88.7801 105.482L88.0801 104.793C86.1894 105.281 84.2221 105.335 82.3101 104.952C84.3733 105.017 86.4239 104.59 88.3101 103.702ZM127.57 108.998V109.115L127.01 108.924C125.87 108.49 124.7 108.109 123.59 107.589C122.544 107.254 121.468 107.031 120.38 106.922C120.486 107.107 120.557 107.312 120.59 107.526C120.54 108.077 120.87 108.352 121.25 108.585C121.561 108.805 121.897 108.983 122.25 109.115C123.25 109.475 124.25 109.814 125.25 110.089C126.471 110.431 127.746 110.489 128.99 110.259C129.171 110.262 129.351 110.222 129.516 110.141C129.68 110.061 129.825 109.941 129.94 109.793C129.412 109.274 128.789 108.874 128.11 108.617C126.892 107.903 125.586 107.371 124.23 107.039L127.57 108.998ZM120.73 109.094L120.63 109.2L122.35 110.947C122.144 110.932 121.946 110.855 121.78 110.725C120.91 110.111 120.04 109.486 119.16 108.882C118.979 108.74 118.764 108.652 118.54 108.628C117.83 108.628 117.11 108.628 116.39 108.628C116.447 108.841 116.478 109.062 116.48 109.284C116.425 109.506 116.345 109.719 116.24 109.92C116.467 110.368 116.778 110.762 117.155 111.077C117.532 111.393 117.966 111.622 118.43 111.752C120.057 112.235 121.767 112.322 123.43 112.007C123.629 111.938 123.823 111.853 124.01 111.752C123.03 110.723 121.927 109.832 120.73 109.104V109.094ZM77.8001 109.909C78.0551 110.037 78.3193 110.143 78.5901 110.227C79.4626 110.41 80.357 110.446 81.2401 110.333C82.7519 110.116 84.233 109.703 85.6501 109.104C86.0963 108.885 86.5188 108.615 86.9101 108.299C87.0238 108.206 87.1048 108.076 87.1401 107.928C87.2096 107.621 87.2631 107.31 87.3001 106.996C86.8201 107.06 86.3001 107.113 85.8901 107.187C85.5033 107.233 85.1215 107.318 84.7501 107.441C83.3301 107.971 81.9201 108.5 80.5001 109.072L79.9401 109.253V109.157L83.5701 107.039C81.4909 107.611 79.533 108.596 77.8001 109.941V109.909ZM128.89 104.867V105.005C130.14 105.683 131.47 106.17 132.72 106.859C132.644 106.875 132.566 106.875 132.49 106.859L128.63 105.884C128.353 105.808 128.061 105.835 127.8 105.958C127.26 106.223 126.68 106.403 126.12 106.626L125.63 106.827C125.746 106.901 125.866 106.969 125.99 107.028C128.028 107.9 130.228 108.263 132.42 108.087C133.096 108.012 133.765 107.877 134.42 107.685C134.511 107.649 134.593 107.593 134.66 107.52C134.728 107.446 134.779 107.358 134.81 107.261C134.81 107.176 134.61 106.965 134.46 106.869C133.84 106.498 133.2 106.138 132.56 105.81C132.364 105.687 132.146 105.608 131.92 105.577C131.013 105.501 130.119 105.302 129.26 104.984C129.141 104.931 129.017 104.891 128.89 104.867ZM110.66 115.354L110.43 115.004C109.411 113.062 108.89 110.871 108.92 108.649C108.92 108.342 108.98 108.034 108.71 107.801C108.667 107.849 108.63 107.902 108.6 107.96C108.028 109.037 107.771 110.269 107.862 111.501C107.952 112.733 108.387 113.908 109.11 114.877C109.877 115.847 110.695 116.77 111.56 117.642C111.725 117.794 111.907 117.925 112.1 118.034C112.1 117.727 112.1 117.536 112.02 117.356C111.82 116.53 111.61 115.703 111.4 114.888C110.804 113.256 110.443 111.538 110.33 109.793C110.33 109.729 110.21 109.666 110.06 109.496C109.861 111.458 110.065 113.442 110.66 115.312V115.354ZM82.0801 106.774L81.7101 106.615C81.1401 106.403 80.5701 106.212 80.0201 105.958C79.728 105.807 79.3939 105.773 79.0801 105.863C78.0001 106.149 76.9101 106.414 75.8301 106.689L75.0101 106.88C75.2961 106.657 75.6088 106.475 75.9401 106.34L76.9401 105.863C77.2601 105.715 77.5901 105.587 77.9401 105.418C78.2901 105.248 78.6301 105.238 78.9401 104.793C78.3887 105.008 77.8196 105.168 77.2401 105.27C75.965 105.399 74.7409 105.865 73.6801 106.626C73.5401 106.71 73.3801 106.763 73.2401 106.859C73.1259 106.967 73.019 107.084 72.9201 107.208C73.0369 107.377 73.1867 107.518 73.3592 107.62C73.5317 107.722 73.723 107.784 73.9201 107.801C76.6091 108.337 79.3869 108.039 81.9201 106.943C81.9766 106.89 82.03 106.834 82.0801 106.774ZM97.0801 115.343C97.7801 112.261 97.9501 110.746 97.6301 109.539C97.5501 109.676 97.4501 109.761 97.4501 109.856C97.4549 110.731 97.3232 111.601 97.0601 112.43C96.6701 113.913 96.2401 115.396 95.8401 116.89C95.7601 117.208 95.7301 117.547 95.6601 118.013C95.8422 117.896 96.016 117.765 96.1801 117.621C97.0201 116.689 97.9101 115.799 98.6801 114.803C99.149 114.188 99.4946 113.478 99.6957 112.717C99.8969 111.956 99.9494 111.159 99.8501 110.375C99.7632 109.454 99.494 108.563 99.0601 107.759C98.9646 107.868 98.8956 108.001 98.8591 108.145C98.8225 108.289 98.8194 108.44 98.8501 108.585C98.8776 109.721 98.753 110.855 98.4801 111.954C98.1745 113.165 97.6738 114.312 97.0001 115.343H97.0801ZM111.77 110.047C112.145 110.801 112.631 111.488 113.21 112.081C113.878 112.784 114.681 113.327 115.564 113.673C116.448 114.018 117.391 114.158 118.33 114.083C118.482 114.098 118.636 114.069 118.774 113.998C118.911 113.927 119.028 113.817 119.11 113.68C118.759 112.987 118.219 112.422 117.56 112.06C116.833 111.684 116.222 111.096 115.8 110.365C115.67 110.121 115.52 110.079 115.22 110.248L117.08 112.727C116.861 112.678 116.656 112.577 116.48 112.43C115.81 111.816 115.13 111.212 114.48 110.587C114.276 110.374 114.006 110.246 113.72 110.227C113.05 110.227 112.44 110.163 111.73 110.079L111.77 110.047ZM88.7101 113.723C88.8222 113.863 88.967 113.97 89.13 114.033C89.2931 114.096 89.4689 114.113 89.6401 114.083C90.6435 114.142 91.6461 113.953 92.5692 113.532C93.4923 113.111 94.3107 112.469 94.9601 111.657C95.3632 111.181 95.6999 110.646 95.9601 110.068C95.3101 110.132 94.7301 110.206 94.1301 110.227C93.8038 110.246 93.495 110.389 93.2601 110.63C92.5101 111.339 91.7201 112.007 90.9401 112.685C90.8231 112.77 90.6951 112.838 90.5601 112.886C91.2805 112.039 91.9485 111.144 92.5601 110.206C92.1601 110.206 92.1401 110.206 92.0401 110.344C91.5853 111.103 90.9417 111.715 90.1801 112.113C89.513 112.459 88.9795 113.039 88.6701 113.754L88.7101 113.723ZM115.94 109.327C115.76 108.804 115.404 108.37 114.94 108.109C114.586 107.918 114.251 107.691 113.94 107.431C113.192 106.857 112.407 106.34 111.59 105.884C111.36 105.725 111.23 105.884 111.09 106.043C111.366 106.639 111.77 107.158 112.27 107.558C112.77 107.95 113.27 108.289 113.89 108.702C113.148 108.595 112.438 108.317 111.81 107.886C111.22 107.462 110.69 106.954 110.09 106.445L109.32 106.784C109.297 107.347 109.463 107.899 109.789 108.344C110.115 108.788 110.58 109.095 111.1 109.21C112.281 109.53 113.503 109.652 114.72 109.57C115.09 109.57 115.46 109.443 115.9 109.358L115.94 109.327ZM98.4501 106.784L97.5601 106.414C97.1209 107.026 96.5712 107.54 95.9428 107.926C95.3145 108.311 94.6202 108.561 93.9001 108.659C95.0879 108.097 96.0683 107.137 96.6901 105.926C96.4701 105.926 96.3101 105.81 96.2201 105.863C95.6701 106.159 95.1301 106.467 94.6101 106.816C94.0901 107.166 93.3801 107.695 92.7701 108.151C92.3529 108.375 92.0261 108.751 91.8501 109.21C92.0728 109.31 92.3038 109.388 92.5401 109.443C93.9354 109.639 95.3537 109.534 96.7101 109.136C97.2008 109.013 97.6369 108.716 97.9462 108.294C98.2554 107.872 98.4191 107.35 98.4101 106.816L98.4501 106.784ZM114.56 101.372H114.08C113.904 101.366 113.729 101.407 113.572 101.491C113.415 101.576 113.28 101.701 113.18 101.855C113.081 102.009 113.019 102.187 113.002 102.373C112.984 102.559 113.011 102.746 113.08 102.918C113.237 103.338 113.487 103.712 113.809 104.009C114.131 104.306 114.515 104.517 114.93 104.624C116.025 104.95 117.171 105.04 118.3 104.888C118.565 104.826 118.823 104.733 119.07 104.613C118.639 104.262 118.177 103.957 117.69 103.702C116.896 103.38 116.234 102.773 115.82 101.986L115.49 101.425C115.552 101.936 115.719 102.428 115.98 102.863C116.241 103.299 116.589 103.668 117 103.946C115.91 103.66 115.32 103.045 114.52 101.403L114.56 101.372ZM88.7101 104.645C88.9969 104.767 89.2953 104.855 89.6001 104.91C90.2993 104.957 91.0008 104.957 91.7001 104.91C92.2355 104.842 92.7601 104.7 93.2601 104.486C93.6242 104.347 93.951 104.116 94.2123 103.813C94.4736 103.511 94.6616 103.145 94.7601 102.749C94.7898 102.602 94.7898 102.45 94.7601 102.304C94.6758 102.05 94.5227 101.828 94.3199 101.666C94.1171 101.504 93.8737 101.409 93.6201 101.393C93.4601 101.393 93.3001 101.393 93.1601 101.393C92.3401 103.077 91.5901 103.84 90.6901 103.924C91.7801 102.992 92.2201 102.314 92.2601 101.403C92.1401 101.615 92.0501 101.785 91.9501 101.944C91.5304 102.758 90.8492 103.385 90.0301 103.713C89.562 103.976 89.1198 104.288 88.7101 104.645ZM114.08 106.827C114.74 107.431 115.562 107.801 116.43 107.886C117.43 107.96 118.43 107.886 119.43 107.886C119.601 107.859 119.768 107.813 119.93 107.748C119.516 106.799 118.811 106.026 117.93 105.556C117.93 105.556 117.85 105.556 117.81 105.556L115.3 105.471C115.75 105.81 116.08 106.096 116.44 106.34C116.8 106.583 117.21 106.806 117.6 107.039C116.71 106.976 115.845 106.7 115.07 106.234L114.08 106.827ZM87.7701 107.78C87.9054 107.855 88.0502 107.908 88.2001 107.939C89.2001 107.939 90.3101 107.939 91.3601 107.939C92.1964 107.856 92.9836 107.484 93.6001 106.88L92.6001 106.35C91.7436 106.881 90.7807 107.189 89.7901 107.251C90.2401 107.007 90.6901 106.784 91.1101 106.52C91.5388 106.301 91.915 105.983 92.2101 105.587L90.0801 105.672C89.9192 105.66 89.758 105.689 89.6101 105.757C88.818 106.219 88.1766 106.924 87.7701 107.78ZM116.2 101.425C116.389 102.04 116.796 102.553 117.335 102.858C117.873 103.162 118.503 103.233 119.09 103.056C120.444 102.781 121.758 102.321 123 101.689C123.135 101.606 123.266 101.514 123.39 101.414L116.2 101.425ZM84.3301 101.425C84.4656 101.514 84.6058 101.595 84.7501 101.668C85.8501 102.092 86.9501 102.526 88.0701 102.908C88.4861 103.035 88.9171 103.099 89.3501 103.098C89.8251 103.108 90.2894 102.948 90.6684 102.644C91.0474 102.341 91.3191 101.911 91.4401 101.425H84.3301ZM123.47 103.077C124.77 103.522 126.17 103.522 127.47 103.077C128.743 102.782 129.944 102.212 131 101.403C130.261 101.316 129.514 101.418 128.82 101.7C128.095 102.015 127.346 102.264 126.58 102.441C125.55 102.685 124.56 102.855 123.47 103.066V103.077ZM164.64 64.3397C163.846 65.5408 162.861 66.5873 161.73 67.4328L161.79 67.5493H164.73C165.052 66.4971 165.02 65.3593 164.64 64.3291V64.3397ZM43.1501 64.4562C42.9029 64.9429 42.7686 65.4849 42.7581 66.0375C42.7477 66.59 42.8615 67.1372 43.0901 67.634C43.5501 67.634 44.0401 67.634 44.5201 67.634C45.0189 67.6662 45.5193 67.6089 46.0001 67.4645C44.8962 66.6356 43.9326 65.6149 43.1501 64.4456V64.4562ZM76.7701 101.456C77.867 102.195 79.0642 102.753 80.3201 103.109C81.4563 103.456 82.657 103.492 83.8101 103.215C83.9544 103.154 84.0947 103.083 84.2301 103.003C82.395 102.849 80.5919 102.406 78.8801 101.689C78.2094 101.412 77.4804 101.331 76.7701 101.456ZM106.68 109.041C106.399 109.349 106.193 109.726 106.082 110.139C105.972 110.551 105.959 110.987 106.045 111.406C106.131 111.825 106.313 112.215 106.576 112.542C106.838 112.868 107.173 113.121 107.55 113.278C107.171 111.894 107.171 110.424 107.55 109.041H107.4L106.6 110.163L106.68 109.041ZM100.17 108.871C100.555 110.29 100.555 111.795 100.17 113.214C100.527 113.063 100.844 112.823 101.094 112.514C101.344 112.205 101.52 111.837 101.607 111.44C101.693 111.044 101.688 110.631 101.591 110.237C101.494 109.843 101.308 109.48 101.05 109.178L101.13 110.142C100.8 109.761 100.68 109.231 100.17 108.871ZM112.42 103.405C112.382 104.136 112.584 104.858 112.99 105.45L112.05 104.825L111.85 105.248C112.143 105.606 112.53 105.86 112.962 105.98C113.394 106.099 113.85 106.076 114.27 105.916C113.94 104.867 113 104.327 112.42 103.405ZM95.2801 103.405C94.7801 104.327 93.7601 104.835 93.4601 105.979C93.8909 106.061 94.3337 106.038 94.7548 105.911C95.1758 105.785 95.5641 105.558 95.8901 105.248L95.6701 104.867C95.3001 105.037 95.0701 105.439 94.6001 105.439C94.8521 105.184 95.0447 104.87 95.1627 104.523C95.2807 104.176 95.3209 103.804 95.2801 103.437V103.405ZM124 102.007C125.417 102.067 126.834 101.874 128.19 101.435C127.28 101.382 126.37 101.435 125.47 101.372C125.196 101.353 124.921 101.401 124.666 101.511C124.412 101.621 124.184 101.79 124 102.007ZM79.6001 101.382C80.958 101.864 82.3905 102.065 83.8201 101.975C83.5169 101.689 83.1479 101.491 82.7501 101.403C81.6801 101.34 80.6201 101.382 79.5701 101.382H79.6001Z" fill="#5D473C"/>
<path d="M75.9201 86.9656L76.9201 86.5419C77.1686 86.4612 77.3839 86.2937 77.531 86.0667C77.6781 85.8397 77.7483 85.5666 77.7301 85.292C77.7301 81.8811 77.7301 78.4703 77.7301 75.0595C77.739 74.8231 77.6729 74.5904 77.5424 74.3984C77.4119 74.2064 77.2245 74.0662 77.0101 74.0002L75.8301 73.5659C75.9001 73.5023 75.9201 73.46 75.9501 73.46C78.2801 73.46 80.6101 73.3964 82.9501 73.46C84.0228 73.4881 85.073 73.7921 86.0103 74.3457C86.9475 74.8992 87.7436 75.6859 88.3301 76.6378C88.7474 77.2702 89.0244 77.9944 89.1401 78.7563C89.2701 79.6656 89.2701 80.5905 89.1401 81.4998C89.0198 82.313 88.7462 83.0922 88.3355 83.791C87.9249 84.4898 87.3857 85.0939 86.7501 85.5674C85.5628 86.6124 84.0736 87.1955 82.5301 87.2198C80.3001 87.2198 78.0701 87.1139 75.8401 87.0503L75.9201 86.9656ZM79.2601 80.1969V83.809C79.2601 84.2433 79.2601 84.6776 79.2601 85.1119C79.2601 85.8745 79.4701 86.0758 80.1801 86.1711L80.7301 86.2347C82.2973 86.443 83.8866 86.1204 85.2701 85.3131C85.9079 84.9709 86.4593 84.4723 86.8785 83.8588C87.2977 83.2452 87.5725 82.5345 87.6801 81.7858C87.7897 81.118 87.82 80.4383 87.7701 79.7626C87.6935 78.7084 87.3466 77.6965 86.7668 76.8359C86.187 75.9753 85.3963 75.2988 84.4801 74.8794C82.9618 74.2842 81.3171 74.1485 79.7301 74.4875C79.6046 74.5008 79.4885 74.5639 79.405 74.664C79.3215 74.7642 79.2769 74.8941 79.2801 75.0277C79.2701 75.2253 79.2701 75.4233 79.2801 75.6209L79.2601 80.1969Z" fill="#5D473C"/>
<path d="M150.15 73.5023L149.28 73.9578C149.138 74.0275 149.018 74.138 148.933 74.2766C148.849 74.4153 148.802 74.5764 148.8 74.7417C148.8 75.2395 148.72 75.7374 148.72 76.2458V87.0292C148.498 87.1196 148.255 87.1302 148.027 87.0593C147.799 86.9885 147.6 86.8401 147.46 86.6372C144.367 83.2052 141.263 79.7802 138.15 76.3624C138.01 76.2141 137.86 76.0764 137.62 75.8539C137.62 76.1929 137.62 76.4259 137.62 76.6484V83.6819C137.62 84.3386 137.62 84.9848 137.62 85.6415C137.614 85.8849 137.687 86.1231 137.827 86.3161C137.967 86.509 138.166 86.6449 138.39 86.7008C138.629 86.7803 138.855 86.8982 139.06 87.0503H135.17V86.9762L136.04 86.5419C136.193 86.4772 136.324 86.3644 136.415 86.2186C136.507 86.0728 136.553 85.9011 136.55 85.7263C136.55 85.1966 136.55 84.667 136.55 84.148C136.55 80.843 136.55 77.5487 136.55 74.2438V73.46C137.16 73.2905 137.64 73.3011 137.99 73.9155C138.188 74.2221 138.416 74.5061 138.67 74.7629L147 83.809L147.64 84.4763C147.669 84.3046 147.689 84.1313 147.7 83.9573C147.7 81.0973 147.7 78.2267 147.7 75.3667C147.7 75.2395 147.7 75.1018 147.7 74.9747C147.733 74.7108 147.671 74.4432 147.527 74.2253C147.382 74.0074 147.166 73.8552 146.92 73.7989C146.7 73.7166 146.486 73.6175 146.28 73.5023C147.564 73.3134 148.866 73.3134 150.15 73.5023Z" fill="#5D473C"/>
<path d="M65.9999 73.0892C67.4289 73.0922 68.8235 73.5539 69.9999 74.4133C71.0693 75.1974 71.8962 76.2987 72.3767 77.5789C72.8572 78.8591 72.9699 80.2611 72.7007 81.6089C72.4314 82.9568 71.7923 84.1903 70.8634 85.1546C69.9346 86.1189 68.7575 86.7711 67.4799 87.0291C66.4708 87.2846 65.4237 87.3242 64.3999 87.1457C62.7362 86.8047 61.2563 85.8086 60.2582 84.3581C59.2602 82.9076 58.818 81.1103 59.0209 79.3283C59.2237 77.5462 60.0565 75.9118 61.3514 74.7541C62.6464 73.5965 64.3074 73.0016 65.9999 73.0892ZM71.3399 80.5041C71.4799 77.7182 69.2599 73.9896 65.5999 74.1485C64.8654 74.1514 64.1406 74.3256 63.4769 74.6588C62.8132 74.992 62.227 75.476 61.7599 76.0763C61.2254 76.7777 60.8378 77.5915 60.623 78.4637C60.4081 79.3359 60.3709 80.2465 60.5137 81.1351C60.6565 82.0237 60.9761 82.8699 61.4513 83.6176C61.9265 84.3654 62.5464 84.9975 63.2699 85.472C64.346 86.2013 65.6449 86.4667 66.8999 86.2135C68.1685 85.9994 69.3189 85.3001 70.1335 84.2479C70.948 83.1958 71.3701 81.8637 71.3199 80.5041H71.3399Z" fill="#5D473C"/>
<path d="M46.5299 86.955L47.5299 86.5631C47.799 86.4804 48.0323 86.3007 48.1893 86.055C48.3464 85.8093 48.4174 85.5131 48.3899 85.2178C48.3899 83.8619 48.3899 82.5061 48.3899 81.1502V75.3031C48.3899 74.3709 48.3099 74.2438 47.4599 73.9261L46.5899 73.5765C46.5899 73.5765 46.5299 73.5765 46.4399 73.4388C46.5815 73.4035 46.7252 73.3787 46.8699 73.3646H51.6499C52.5187 73.3372 53.3764 73.5763 54.1199 74.0532C54.4518 74.2942 54.7321 74.6064 54.9426 74.9696C55.1531 75.3328 55.2892 75.7389 55.342 76.1614C55.3948 76.5839 55.3632 77.0135 55.2491 77.4222C55.135 77.8309 54.9411 78.2097 54.6799 78.5338C54.2099 79.0105 53.6799 79.4024 53.0999 79.8685C53.3211 79.9355 53.5382 80.0169 53.7499 80.1122C54.228 80.3121 54.6868 80.5604 55.1199 80.8536C55.4759 81.1419 55.7664 81.5109 55.9701 81.9337C56.1738 82.3564 56.2855 82.8222 56.297 83.2966C56.3085 83.7711 56.2195 84.2423 56.0366 84.6755C55.8537 85.1088 55.5815 85.4932 55.2399 85.8004C54.2195 86.7521 52.8877 87.2427 51.5299 87.1669C50.0199 87.1669 48.5299 87.0927 47.0099 87.0609H46.5299V86.955ZM49.9999 80.5041C49.9999 80.5782 49.9099 80.6206 49.9099 80.6524C49.9099 82.2201 49.9099 83.8302 49.9099 85.3661C49.9099 85.9063 50.0999 86.097 50.6099 86.2135C51.1634 86.3483 51.7374 86.3596 52.2952 86.2465C52.8531 86.1334 53.3825 85.8985 53.8499 85.5568C54.1841 85.2766 54.4473 84.9128 54.6158 84.4982C54.7842 84.0835 54.8527 83.631 54.815 83.1813C54.7773 82.7317 54.6347 82.299 54.3999 81.9222C54.1651 81.5455 53.8455 81.2365 53.4699 81.0231C52.3727 80.5444 51.1794 80.3659 49.9999 80.5041ZM49.8899 79.6037H50.7999C51.7241 79.5841 52.6097 79.2074 53.2899 78.5444C53.6117 78.2612 53.8497 77.8859 53.9756 77.4633C54.1015 77.0407 54.11 76.5886 53.9999 76.1611C53.9567 75.7554 53.793 75.3748 53.5324 75.074C53.2718 74.7733 52.9278 74.5679 52.5499 74.4875C51.9439 74.364 51.3266 74.3143 50.7099 74.3392C50.0299 74.3392 49.9199 74.4981 49.9199 75.2078C49.9199 76.267 49.9199 77.4322 49.9199 78.5444L49.8899 79.6037Z" fill="#5D473C"/>
<path d="M156.73 79.5719H159.94C160.097 79.5567 160.247 79.4977 160.375 79.401C160.504 79.3042 160.605 79.1731 160.67 79.0211C160.792 78.8163 160.902 78.6041 161 78.3856C161.155 79.6584 161.155 80.9472 161 82.2201C160.85 81.8176 160.74 81.5316 160.64 81.2244C160.583 81.0227 160.467 80.8454 160.309 80.7179C160.151 80.5904 159.959 80.5193 159.76 80.5147C159.02 80.5147 158.27 80.5147 157.53 80.5147H156.77C156.77 80.7371 156.72 80.9066 156.72 81.0761V84.953C156.705 85.1256 156.705 85.2994 156.72 85.472C156.79 85.9911 156.95 86.1605 157.45 86.1605H161.11C161.265 86.1698 161.419 86.1207 161.543 86.0218C161.667 85.923 161.755 85.7808 161.79 85.6203C161.917 85.2109 162.085 84.8168 162.29 84.4445V86.9974H153.29C153.75 86.8279 154.11 86.6796 154.48 86.5631C154.701 86.5099 154.895 86.3724 155.026 86.177C155.157 85.9816 155.215 85.742 155.19 85.5038C155.19 81.9765 155.19 78.4597 155.19 74.9112C155.211 74.6724 155.149 74.4337 155.017 74.2391C154.884 74.0445 154.69 73.907 154.47 73.8519C154.12 73.7409 153.784 73.5844 153.47 73.3858H161.72V75.9598H161.64C161.53 75.6738 161.4 75.3878 161.3 75.1018C161.232 74.857 161.088 74.6431 160.893 74.4936C160.698 74.3441 160.461 74.2674 160.22 74.2756C159.22 74.2756 158.22 74.2756 157.22 74.2756C156.74 74.2756 156.66 74.3709 156.66 74.8476C156.72 76.4259 156.73 77.9513 156.73 79.5719Z" fill="#5D473C"/>
<path d="M101.16 87.0397H96.0001L97.2101 86.6054C97.3998 86.5453 97.5642 86.4175 97.6753 86.2438C97.7865 86.0701 97.8376 85.8611 97.8201 85.6521C97.8201 84.0738 97.8201 82.4743 97.8201 80.9278C97.8159 80.7544 97.7749 80.5842 97.7001 80.4299C96.9353 78.7845 96.0667 77.1955 95.1001 75.6738C94.5633 74.8361 93.8148 74.1753 92.9401 73.7672C92.7401 73.6718 92.5501 73.5553 92.3101 73.4282C92.8244 73.181 93.4099 73.1582 93.9401 73.3646C94.7173 73.5587 95.4171 74.0071 95.9401 74.6464C96.6414 75.5365 97.2577 76.4981 97.7801 77.517L98.6501 79.18C98.7328 79.101 98.8066 79.0122 98.8701 78.9152C99.5301 77.7076 100.2 76.5001 100.87 75.2713C101.36 74.3392 101.3 74.2121 100.38 73.7672L99.9201 73.5553C101.362 73.3827 102.818 73.3827 104.26 73.5553C103.94 73.693 103.72 73.7883 103.5 73.8625C103.204 73.9575 102.928 74.1141 102.689 74.3233C102.451 74.5325 102.254 74.7899 102.11 75.0806C101.257 76.6272 100.397 78.1702 99.5301 79.7096C99.3771 79.9668 99.294 80.2637 99.2901 80.5676C99.2901 82.1671 99.2901 83.7454 99.2901 85.3555C99.2901 86.2877 99.4401 86.4889 100.29 86.7537L101.17 87.0292L101.16 87.0397Z" fill="#5D473C"/>
<path d="M115 73.407H120V73.5341L119.1 73.8307C118.3 74.0849 118.1 74.2862 118.1 75.1866V85.0801C118.09 85.2317 118.09 85.384 118.1 85.5356C118.18 85.9487 118.32 86.1394 118.72 86.1394C119.72 86.1394 120.72 86.1394 121.72 86.1394C121.982 86.1367 122.235 86.0429 122.441 85.8725C122.647 85.7021 122.794 85.4646 122.86 85.1966C122.94 84.953 123.04 84.7094 123.14 84.4551C123.32 85.3073 123.347 86.1876 123.22 87.0503H114.62L115.94 86.5843C116.131 86.5299 116.298 86.4051 116.409 86.2322C116.521 86.0594 116.571 85.8499 116.55 85.6415C116.55 84.7199 116.55 83.809 116.55 82.8874C116.55 80.2746 116.55 77.6511 116.55 75.0171C116.55 74.318 116.44 74.1379 115.83 73.8943C115.49 73.7566 115.14 73.64 114.83 73.5129L115 73.407Z" fill="#5D473C"/>
<path d="M126.73 73.3964H131.73V73.5129L130.89 73.8095C129.96 74.0955 129.89 74.2226 129.89 75.2184V85.2496C129.89 86.2347 130.02 86.3936 130.89 86.669C131.185 86.7448 131.466 86.8738 131.72 87.0503H126.56V86.9868L127.56 86.6266C128.24 86.3512 128.35 86.1711 128.35 85.4085V75.1124C128.35 74.2968 128.24 74.1167 127.55 73.8413C127.24 73.7142 126.93 73.6189 126.62 73.5129L126.73 73.3964Z" fill="#5D473C"/>
<path d="M96.19 96.6896C96.0231 96.5573 95.8629 96.4159 95.71 96.2659C94.88 95.3656 94.05 94.444 93.22 93.533C93.1 93.3953 92.96 93.2682 92.72 93.0352C92.72 93.7555 92.72 94.3275 92.72 94.9101C92.72 95.4927 92.52 96.0859 92.95 96.6261H92.22C92.2941 96.331 92.3443 96.0298 92.37 95.7257C92.37 94.5711 92.37 93.4165 92.37 92.2725C92.66 92.103 92.77 92.2725 92.91 92.4738L95.54 95.3338L95.91 95.6939C95.9409 95.5368 95.9609 95.3775 95.97 95.2173C95.97 94.4546 95.97 93.2258 95.97 92.4632C95.97 92.3467 95.82 92.2301 95.63 92.1984H96.63C96.4 92.2725 96.32 92.3361 96.32 92.5161C96.32 93.6813 96.32 95.3973 96.32 96.5519L96.19 96.6896Z" fill="#5D473C"/>
<path d="M122.14 96.5625C122.5 96.4248 122.54 96.1494 122.54 95.821C122.54 94.8783 122.54 93.9461 122.54 93.0034C122.5 92.7294 122.426 92.4622 122.32 92.209C122.94 92.209 123.63 92.209 124.32 92.209C124.63 92.2226 124.934 92.3093 125.209 92.4629C125.484 92.6166 125.723 92.8332 125.909 93.097C126.094 93.3608 126.222 93.6652 126.283 93.988C126.344 94.3108 126.336 94.6439 126.26 94.963C126.134 95.4306 125.874 95.8449 125.515 96.1486C125.157 96.4523 124.718 96.6303 124.26 96.6579C123.6 96.6579 122.94 96.6579 122.26 96.6579L122.14 96.5625ZM123.02 92.6327V95.4185C123.02 96.3825 123.08 96.4778 124.02 96.393H124.26C124.665 96.3492 125.043 96.1551 125.327 95.8451C125.61 95.535 125.781 95.1289 125.81 94.6982C125.852 94.2716 125.761 93.8421 125.549 93.4763C125.337 93.1105 125.018 92.8289 124.64 92.675C124.11 92.4845 123.538 92.4697 123 92.6327H123.02Z" fill="#5D473C"/>
<path d="M136.07 92.156C136.67 92.156 137.33 92.156 137.99 92.156C138.281 92.1652 138.566 92.2389 138.828 92.3722C139.091 92.5056 139.323 92.6957 139.512 92.9303C139.7 93.1648 139.84 93.4387 139.923 93.7341C140.005 94.0295 140.028 94.3399 139.99 94.6453C139.921 95.156 139.692 95.6276 139.341 95.9847C138.989 96.3418 138.535 96.5639 138.05 96.6155C137.83 96.6155 137.6 96.6155 137.37 96.6155C136.88 96.6155 136.37 96.6155 135.87 96.6155C136.25 96.4142 136.26 96.0964 136.25 95.7575C136.25 94.8465 136.25 93.925 136.25 93.014C136.225 92.721 136.165 92.4326 136.07 92.156ZM136.79 92.6009V95.3338C136.79 96.393 136.86 96.393 137.85 96.3401H138C138.405 96.3068 138.786 96.1226 139.076 95.8201C139.365 95.5176 139.544 95.1164 139.58 94.6876C139.641 94.2449 139.558 93.7932 139.343 93.4078C139.128 93.0224 138.796 92.7264 138.4 92.5691C137.87 92.4133 137.306 92.4393 136.79 92.6432V92.6009Z" fill="#5D473C"/>
<path d="M77.2401 96.6579C76.705 96.685 76.1795 96.5006 75.7656 96.1405C75.3517 95.7803 75.0789 95.2701 75.0001 94.7088C74.9415 94.1596 75.078 93.607 75.383 93.1585C75.688 92.7101 76.1397 92.398 76.6501 92.2831C76.9903 92.1703 77.3515 92.148 77.7018 92.2182C78.052 92.2884 78.3806 92.4489 78.6584 92.6856C78.9361 92.9222 79.1546 93.2277 79.2944 93.5751C79.4343 93.9224 79.4912 94.3009 79.4601 94.677C79.403 95.192 79.1779 95.6696 78.8237 96.0274C78.4695 96.3852 78.0084 96.6007 77.5201 96.6367C77.4274 96.6507 77.3338 96.6578 77.2401 96.6579ZM77.2401 92.5585C77.0182 92.5441 76.7958 92.5777 76.5864 92.6572C76.3771 92.7367 76.1853 92.8605 76.0225 93.021C75.8597 93.1815 75.7295 93.3754 75.6397 93.5909C75.5499 93.8064 75.5024 94.039 75.5001 94.2745C75.4894 94.53 75.5265 94.7852 75.6093 95.0254C75.6921 95.2656 75.8189 95.4861 75.9825 95.6742C76.1461 95.8622 76.3432 96.0141 76.5625 96.1212C76.7818 96.2282 77.0189 96.2882 77.2601 96.2977C77.4816 96.3062 77.7024 96.2682 77.91 96.1858C78.1175 96.1035 78.3076 95.9785 78.4694 95.818C78.6311 95.6575 78.7613 95.4647 78.8524 95.2507C78.9435 95.0367 78.9937 94.8058 79.0001 94.5711C79.0109 94.3179 78.9743 94.0649 78.8927 93.8266C78.811 93.5884 78.6858 93.3695 78.5242 93.1826C78.3625 92.9956 78.1677 92.8443 77.9508 92.7372C77.7339 92.6301 77.4992 92.5694 77.2601 92.5585H77.2401Z" fill="#5D473C"/>
<path d="M105.17 96.6579C104.638 96.6827 104.116 96.4985 103.705 96.1408C103.293 95.783 103.021 95.2768 102.94 94.7194C102.876 94.1711 103.007 93.6171 103.309 93.1663C103.61 92.7155 104.06 92.4005 104.57 92.2831C104.91 92.1686 105.271 92.1446 105.622 92.2133C105.973 92.282 106.302 92.4412 106.581 92.6768C106.86 92.9125 107.08 93.2173 107.221 93.5644C107.362 93.9114 107.42 94.2899 107.39 94.6664C107.34 95.1815 107.119 95.6613 106.768 96.0215C106.417 96.3818 105.958 96.5996 105.47 96.6367C105.34 96.6579 105.22 96.6473 105.17 96.6579ZM105.17 92.5585C104.943 92.5482 104.717 92.5875 104.505 92.6741C104.293 92.7607 104.101 92.8926 103.939 93.0616C103.778 93.2306 103.651 93.4331 103.567 93.6564C103.483 93.8797 103.443 94.1189 103.45 94.3593C103.439 94.6153 103.476 94.871 103.559 95.1118C103.642 95.3527 103.768 95.5739 103.932 95.7628C104.095 95.9517 104.292 96.1046 104.512 96.2127C104.731 96.3209 104.968 96.3822 105.21 96.393C105.437 96.3974 105.663 96.3532 105.873 96.2631C106.084 96.1731 106.275 96.0391 106.435 95.869C106.596 95.699 106.722 95.4964 106.807 95.2734C106.892 95.0504 106.934 94.8116 106.93 94.5711C106.941 94.3118 106.902 94.0528 106.816 93.8098C106.73 93.5667 106.599 93.3445 106.43 93.1566C106.261 92.9687 106.057 92.8188 105.832 92.716C105.607 92.6133 105.365 92.5597 105.12 92.5585H105.17Z" fill="#5D473C"/>
<path d="M60.55 92.156C61.06 92.156 61.55 92.156 62.09 92.156C62.316 92.1682 62.5373 92.2294 62.74 92.3361C62.8729 92.4 62.9891 92.4972 63.0786 92.6193C63.1681 92.7414 63.2283 92.8847 63.2539 93.0369C63.2794 93.1891 63.2697 93.3456 63.2255 93.4929C63.1812 93.6403 63.1039 93.774 63 93.8826C62.88 94.0203 62.74 94.1368 62.58 94.2957C62.7547 94.3851 62.925 94.4841 63.09 94.5923C63.2166 94.6853 63.3212 94.8081 63.3956 94.9509C63.47 95.0938 63.5122 95.253 63.519 95.416C63.5258 95.5791 63.4969 95.7415 63.4346 95.8908C63.3724 96.0401 63.2784 96.1721 63.16 96.2765C62.8806 96.529 62.5272 96.6712 62.16 96.679H60.49C60.6526 96.5906 60.7863 96.4524 60.8737 96.2824C60.9611 96.1123 60.9981 95.9184 60.98 95.7257C60.98 94.8465 60.98 93.9779 60.98 93.1093C61.0155 92.9225 60.9928 92.7285 60.9153 92.5566C60.8377 92.3847 60.7095 92.2441 60.55 92.156ZM61.46 94.4122V95.9164C61.46 96.213 61.59 96.3719 61.88 96.3507C62.1032 96.3298 62.3241 96.2873 62.54 96.2236C62.6978 96.1671 62.8331 96.0558 62.9238 95.9078C63.0146 95.7598 63.0555 95.5837 63.04 95.4079C63.0548 95.2305 63.0096 95.0532 62.9126 94.9077C62.8155 94.7622 62.6728 94.6579 62.51 94.6135C62.2 94.5711 61.88 94.5287 61.46 94.4546V94.4122ZM61.46 92.5903V94.158C61.6855 94.2108 61.9208 94.1917 62.1361 94.1031C62.3515 94.0145 62.5372 93.8604 62.67 93.6601C62.7426 93.5155 62.7746 93.3518 62.7622 93.1885C62.7498 93.0252 62.6935 92.8691 62.6 92.7386C62.4458 92.6062 62.2579 92.5255 62.0602 92.5066C61.8625 92.4878 61.664 92.5316 61.49 92.6326L61.46 92.5903Z" fill="#5D473C"/>
<path d="M100.52 92.6538L100.29 92.2407H101.39L99.3001 94.2745C99.9955 95.2262 100.825 96.0586 101.76 96.7426C101.619 96.8037 101.464 96.8212 101.313 96.7931C101.163 96.765 101.023 96.6924 100.91 96.5837C100.553 96.3066 100.219 95.9983 99.9101 95.6621C99.6001 95.3444 99.3101 94.9948 98.9801 94.6029C98.8622 94.9412 98.8277 95.3058 98.8801 95.6621C98.8801 96.0223 98.7501 96.446 99.2301 96.6261H98.2101C98.3133 96.3835 98.384 96.1268 98.4201 95.8634C98.4201 94.9101 98.4201 93.9461 98.4201 92.9822C98.4201 92.6644 98.4201 92.3572 98.0601 92.2195H99.2601C98.6001 92.728 99.0401 93.4377 98.8801 94.0415L99.0201 94.1262L100.52 92.6538Z" fill="#5D473C"/>
<path d="M115.53 92.2301C115.376 92.3102 115.25 92.4415 115.172 92.6039C115.095 92.7664 115.069 92.9513 115.1 93.1305V96.5837C114.76 96.732 114.66 96.446 114.52 96.2871C113.7 95.3973 112.89 94.497 112.08 93.5966C111.93 93.4271 111.77 93.2788 111.58 93.0881C111.355 94.2632 111.41 95.4791 111.74 96.6261H111C111.093 96.3302 111.156 96.0249 111.19 95.7151C111.19 94.783 111.19 93.8402 111.19 92.8975V92.2937C111.48 92.1136 111.58 92.2937 111.7 92.442L114.23 95.2384L114.72 95.7469C114.75 95.5789 114.77 95.4091 114.78 95.2384C114.78 94.4758 114.78 93.7025 114.78 92.9398C114.743 92.6963 114.679 92.4581 114.59 92.2301H115.53Z" fill="#5D473C"/>
<path d="M131.15 96.6261L133.89 92.5585C133.07 92.5585 132.38 92.5585 131.69 92.5585C131.53 92.5585 131.39 92.7915 131.24 92.9187V92.1984H134.69L131.9 96.393C132.65 96.393 133.26 96.393 133.9 96.393C134.12 96.393 134.33 96.1812 134.57 96.0435L134.4 96.6685L131.15 96.6261Z" fill="#5D473C"/>
<path d="M143.88 94.9207H142.41C142.31 95.4821 141.77 95.9799 142.11 96.6261H141.31C141.474 96.3434 141.621 96.0497 141.75 95.7469C142.2 94.6029 142.62 93.4377 143.07 92.2407C143.31 92.103 143.4 92.2407 143.5 92.5373C143.85 93.5966 144.22 94.6559 144.61 95.7151C144.737 96.0258 144.884 96.3266 145.05 96.6155H144.12C144.48 95.9693 143.89 95.5245 143.88 94.9207ZM143.67 94.5287L143.18 93.2153H143.05L142.56 94.5711L143.67 94.5287Z" fill="#5D473C"/>
<path d="M117.66 96.6367H116.88C117.565 95.2257 118.144 93.7593 118.61 92.2513C118.94 92.103 118.99 92.3255 119.07 92.5691C119.44 93.6284 119.82 94.7512 120.21 95.821C120.331 96.0968 120.471 96.3624 120.63 96.6155H119.63C119.89 96.3613 119.8 96.0964 119.69 95.8316C119.58 95.5668 119.49 95.2596 119.38 94.9418H118C117.87 95.4821 117.35 95.9376 117.66 96.6367ZM119.24 94.5181L118.75 93.2152H118.61L118.13 94.5605L119.24 94.5181Z" fill="#5D473C"/>
<path d="M88.25 96.6261C88.57 96.4778 88.56 96.1918 88.55 95.8952C88.55 94.9101 88.55 93.925 88.55 92.9504C88.55 92.6432 88.55 92.3784 88.22 92.2195H90.64V92.7492C90.4116 92.6065 90.1587 92.5134 89.8961 92.4752C89.6334 92.437 89.3662 92.4545 89.11 92.5267C89.0095 93.0674 88.9892 93.6213 89.05 94.1686C89.5124 94.3179 90.0117 94.2684 90.44 94.0309V94.8253C90.2314 94.6756 89.9947 94.5754 89.7462 94.5316C89.4977 94.4877 89.2431 94.5012 89 94.5711C89 95.069 89 95.5668 89 96.0647C89 96.16 89.13 96.3401 89.2 96.3401C89.63 96.3401 90.07 96.3401 90.5 96.3401C90.59 96.3401 90.67 96.1706 90.79 96.0435V96.6261H88.25Z" fill="#5D473C"/>
<path d="M71.8299 96.5625V95.6516C71.9002 95.909 72.06 96.1287 72.2771 96.2663C72.4943 96.4038 72.7525 96.4492 72.9999 96.393C73.1562 96.39 73.3078 96.3352 73.4333 96.2365C73.5588 96.1377 73.652 95.9999 73.6999 95.8422C73.7492 95.674 73.7412 95.4927 73.6772 95.3301C73.6132 95.1675 73.4974 95.0339 73.3499 94.9524C73.0599 94.7512 72.7399 94.5817 72.4399 94.391C71.8399 94.0097 71.6199 93.5648 71.7599 93.0034C71.8488 92.732 72.0168 92.4975 72.2397 92.3338C72.4626 92.17 72.7288 92.0855 72.9999 92.0924C73.2751 92.1087 73.5491 92.1441 73.8199 92.1984C73.8199 92.3678 73.8699 92.5055 73.8799 92.6538C73.8984 92.7944 73.8984 92.937 73.8799 93.0775C73.8084 92.8647 73.6701 92.6844 73.488 92.5667C73.306 92.4491 73.0913 92.4013 72.8799 92.4314C72.7256 92.4496 72.5797 92.5155 72.4605 92.621C72.3414 92.7265 72.2542 92.8669 72.2099 93.0246C72.1618 93.1702 72.1613 93.3287 72.2085 93.4747C72.2556 93.6207 72.3477 93.7457 72.4699 93.8296C72.6699 93.9885 72.8899 94.105 73.0999 94.2427C73.3099 94.3804 73.5299 94.497 73.7299 94.6453C73.8924 94.7576 74.0204 94.9175 74.0986 95.1056C74.1767 95.2937 74.2015 95.5018 74.1699 95.7045C74.1443 95.9117 74.0641 96.107 73.9385 96.2681C73.813 96.4292 73.6471 96.5496 73.4599 96.6155C72.9295 96.8144 72.3479 96.7955 71.8299 96.5625Z" fill="#5D473C"/>
<path d="M84.69 96.5731V95.7575C84.7852 95.9675 84.9362 96.1435 85.1245 96.2639C85.3128 96.3844 85.5302 96.444 85.75 96.4354C85.9267 96.4394 86.1002 96.3842 86.2456 96.2777C86.3911 96.1712 86.5011 96.0188 86.56 95.8422C86.5988 95.6693 86.5803 95.4875 86.5074 95.3273C86.4346 95.1672 86.3119 95.0386 86.16 94.963C85.86 94.7618 85.55 94.6029 85.25 94.4122C85.0036 94.3098 84.8013 94.1152 84.6815 93.8653C84.5617 93.6153 84.5327 93.3275 84.6 93.0564C84.6678 92.8031 84.81 92.5793 85.006 92.4175C85.202 92.2556 85.4415 92.164 85.69 92.156C86.0252 92.1472 86.3603 92.1756 86.69 92.2407V93.0034C86.592 92.8197 86.4445 92.6711 86.2664 92.5767C86.0882 92.4824 85.8875 92.4465 85.69 92.4738C85.5344 92.4927 85.3876 92.5602 85.2683 92.6677C85.149 92.7753 85.0625 92.9179 85.02 93.0776C84.9718 93.2254 84.9734 93.3862 85.0244 93.533C85.0755 93.6797 85.1728 93.8032 85.3 93.8826C85.67 94.1474 86.08 94.3699 86.46 94.6135C86.6258 94.7068 86.7634 94.8477 86.8571 95.0201C86.9509 95.1924 86.9969 95.3892 86.99 95.588C86.9994 95.823 86.9348 96.0547 86.8063 96.2465C86.6777 96.4383 86.4925 96.5793 86.28 96.6473C85.7597 96.8326 85.1929 96.8061 84.69 96.5731Z" fill="#5D473C"/>
<path d="M82.61 96.6261H81.53C81.6269 96.4527 81.6945 96.2627 81.73 96.0647C81.73 94.9313 81.73 93.7978 81.73 92.6221C81.27 92.6221 80.84 92.3784 80.45 92.9293V92.209H83.61V92.9822C83.27 92.3678 82.79 92.5797 82.27 92.6009V93.6601C82.27 94.3804 82.27 95.1007 82.27 95.7787C82.22 96.16 82.22 96.4884 82.61 96.6261Z" fill="#5D473C"/>
<path d="M65.9999 96.6367C66.6499 95.5774 66.3199 93.6072 64.6399 92.156C65.8299 92.156 66.0399 93.2153 66.5699 93.9885C66.8881 93.6065 67.1418 93.1694 67.3199 92.6962C67.3199 92.5903 67.2499 92.3996 67.1999 92.2301H68.1999C67.5908 92.8024 67.1325 93.5324 66.8699 94.3487C66.7492 94.9671 66.7492 95.6051 66.8699 96.2236C66.8699 96.3719 67.0799 96.5096 67.1699 96.6261L65.9999 96.6367Z" fill="#5D473C"/>
<path d="M127.47 96.6261C127.79 96.4778 127.78 96.1918 127.78 95.8952C127.78 94.9065 127.78 93.9214 127.78 92.9398C127.78 92.6432 127.78 92.3784 127.45 92.2195H129.87V92.7492C129.642 92.6065 129.389 92.5134 129.126 92.4752C128.863 92.437 128.596 92.4545 128.34 92.5267C128.24 93.0639 128.22 93.6142 128.28 94.158C128.508 94.2364 128.748 94.2656 128.987 94.2438C129.226 94.222 129.458 94.1496 129.67 94.0309V94.8253C129.462 94.675 129.225 94.5744 128.976 94.5305C128.728 94.4866 128.473 94.5005 128.23 94.5711C128.23 95.069 128.23 95.5668 128.23 96.0647C128.23 96.16 128.36 96.3401 128.43 96.3401C128.86 96.3401 129.3 96.3401 129.73 96.3401C129.82 96.3401 129.9 96.1706 130.02 96.0329V96.6261H127.47Z" fill="#5D473C"/>
</svg>
