<svg width="41" height="38" viewBox="0 0 41 38" fill="none" xmlns="http://www.w3.org/2000/svg">
<path d="M41 19.0113C41 24.0092 38.8402 28.8025 34.9957 32.3365C31.1512 35.8706 25.9369 37.856 20.5 37.856C15.0631 37.856 9.84881 35.8706 6.00431 32.3365C2.15982 28.8025 0 24.0092 0 19.0113C0 14.0133 2.15982 9.22009 6.00431 5.68601C9.84881 2.15193 15.0631 0.166504 20.5 0.166504C25.9369 0.166504 31.1512 2.15193 34.9957 5.68601C38.8402 9.22009 41 14.0133 41 19.0113ZM21.2354 14.0787C19.2401 14.8419 15.2546 16.4201 9.27881 18.8134C8.31019 19.1667 7.80196 19.5138 7.75413 19.8546C7.67725 20.427 8.45881 20.6531 9.52225 20.9617L9.97069 21.0913C11.0162 21.4046 12.4256 21.7697 13.1559 21.7838C13.8221 21.7995 14.5635 21.5482 15.3801 21.03C20.9647 17.5657 23.8466 15.8147 24.026 15.777C24.1541 15.7488 24.3335 15.7158 24.4514 15.8147C24.5693 15.9137 24.559 16.0974 24.5462 16.1469C24.4693 16.4507 21.402 19.0702 19.8158 20.427C19.3212 20.851 18.9702 21.1502 18.8984 21.2185C18.7405 21.3669 18.5799 21.513 18.4167 21.6566C17.4429 22.5188 16.7152 23.1642 18.4551 24.2195C19.2931 24.7283 19.9644 25.1452 20.6332 25.5645C21.361 26.0215 22.0887 26.4762 23.0317 27.0462C23.2709 27.1907 23.5015 27.3375 23.7236 27.4867C24.5718 28.0426 25.338 28.542 26.2784 28.4619C26.8268 28.4148 27.3931 27.9437 27.6801 26.5303C28.3592 23.1925 29.6943 15.9631 30.0018 12.9833C30.0211 12.7356 30.0099 12.4867 29.9684 12.2413C29.9436 12.0434 29.8394 11.8612 29.6763 11.7301C29.4428 11.5827 29.1651 11.5062 28.8819 11.5111C28.1132 11.5228 26.9267 11.9021 21.2354 14.0787Z" fill="white"/>
</svg>
