<svg width="28" height="29" viewBox="0 0 28 29" fill="none" xmlns="http://www.w3.org/2000/svg">
<path d="M28 14.3862C28 18.0921 26.525 21.6462 23.8995 24.2666C21.274 26.8871 17.713 28.3593 14 28.3593C10.287 28.3593 6.72601 26.8871 4.10051 24.2666C1.475 21.6462 0 18.0921 0 14.3862C0 10.6803 1.475 7.12615 4.10051 4.50568C6.72601 1.88522 10.287 0.413055 14 0.413055C17.713 0.413055 21.274 1.88522 23.8995 4.50568C26.525 7.12615 28 10.6803 28 14.3862ZM14.5022 10.7287C13.1396 11.2946 10.4178 12.4649 6.33675 14.2394C5.67525 14.5014 5.32817 14.7588 5.2955 15.0115C5.243 15.4359 5.77675 15.6036 6.503 15.8324L6.80925 15.9284C7.52325 16.1608 8.48575 16.4315 8.9845 16.442C9.4395 16.4536 9.94583 16.2673 10.5035 15.883C14.3173 13.3143 16.2855 12.016 16.408 11.988C16.4955 11.9671 16.618 11.9426 16.6985 12.016C16.779 12.0893 16.772 12.2256 16.7633 12.2623C16.7108 12.4876 14.616 14.4298 13.5327 15.4359C13.195 15.7503 12.9552 15.9721 12.9062 16.0228C12.7984 16.1329 12.6887 16.2412 12.5772 16.3476C11.9122 16.9869 11.4152 17.4655 12.6035 18.248C13.1757 18.6253 13.6342 18.9344 14.091 19.2453C14.588 19.5842 15.085 19.9213 15.729 20.344C15.8923 20.4511 16.0498 20.5599 16.2015 20.6706C16.7808 21.0828 17.304 21.4531 17.9463 21.3937C18.3207 21.3587 18.7075 21.0094 18.9035 19.9614C19.3673 17.4865 20.279 12.126 20.489 9.91652C20.5022 9.73285 20.4946 9.54828 20.4662 9.36633C20.4493 9.21962 20.3782 9.08449 20.2668 8.9873C20.1073 8.87803 19.9176 8.82123 19.7243 8.82487C19.1992 8.8336 18.389 9.11481 14.5022 10.7287Z" fill="#5D473C"/>
</svg>
