<svg width="28" height="29" viewBox="0 0 28 29" fill="none" xmlns="http://www.w3.org/2000/svg">
<path d="M23.9093 4.47582C22.6201 3.18243 21.0845 2.15707 19.3923 1.45955C17.7 0.762028 15.8848 0.406312 14.0527 0.413152C6.37594 0.413152 0.119538 6.62767 0.112506 14.257C0.112506 16.7005 0.755902 19.0777 1.97062 21.1824L0 28.3593L7.39025 26.4345C9.4338 27.5423 11.7248 28.1219 14.0527 28.12H14.0598C21.7383 28.12 27.993 21.9055 28 14.2692C28.0016 12.4493 27.6408 10.6471 26.9384 8.96631C26.2361 7.28554 25.2078 5.75942 23.9093 4.47582ZM14.0527 25.776C11.977 25.7744 9.93962 25.2195 8.15319 24.1691L7.73129 23.9176L3.34706 25.0599L4.51783 20.8103L4.2436 20.3719C3.08304 18.5385 2.46924 16.4158 2.47338 14.25C2.47338 7.91669 7.67152 2.75015 14.0598 2.75015C15.5817 2.74743 17.089 3.04406 18.495 3.62292C19.901 4.20179 21.1777 5.05144 22.2516 6.12289C23.329 7.19035 24.1832 8.45909 24.7649 9.85602C25.3466 11.2529 25.6443 12.7504 25.6409 14.2622C25.6338 20.6182 20.4357 25.776 14.0527 25.776ZM20.4076 17.1581C20.0613 16.9852 18.3508 16.1486 18.0291 16.0298C17.7092 15.9163 17.4754 15.8569 17.2469 16.2027C17.0131 16.5468 16.345 17.331 16.1446 17.5564C15.9442 17.7887 15.7368 17.8149 15.3887 17.6437C15.0424 17.469 13.9191 17.1057 12.5902 15.9233C11.553 15.0063 10.8586 13.871 10.6512 13.5269C10.4508 13.181 10.6318 12.9959 10.8059 12.823C10.9588 12.6693 11.1522 12.4178 11.3262 12.2186C11.502 12.0195 11.56 11.8728 11.6743 11.6423C11.7885 11.4082 11.7341 11.2091 11.6479 11.0362C11.56 10.8633 10.8656 9.1568 10.5721 8.46862C10.2908 7.78918 10.0043 7.8835 9.7898 7.87477C9.5894 7.86254 9.3556 7.86254 9.1218 7.86254C8.94526 7.86701 8.77155 7.90763 8.61153 7.98186C8.45152 8.05609 8.30865 8.16234 8.19186 8.29396C7.87192 8.63979 6.97715 9.47643 6.97715 11.1829C6.97715 12.8893 8.22526 14.5294 8.40105 14.7617C8.57333 14.994 10.8516 18.4856 14.3481 19.9877C15.1743 20.3457 15.8247 20.5571 16.3327 20.7178C17.1678 20.9832 17.9219 20.9431 18.5231 20.8575C19.1911 20.7562 20.5816 20.0191 20.8752 19.2104C21.1635 18.4 21.1635 17.7083 21.0756 17.5633C20.9894 17.4166 20.7556 17.331 20.4076 17.1581Z" fill="#5D473C"/>
</svg>
