<svg width="39" height="39" viewBox="0 0 39 39" fill="none" xmlns="http://www.w3.org/2000/svg">
<path d="M33.3023 5.81907C31.5066 4.07475 29.3678 2.6919 27.0107 1.75119C24.6535 0.810483 22.1253 0.330749 19.5735 0.339974C8.88077 0.339974 0.166499 8.72115 0.156705 19.0104C0.156705 22.3058 1.05286 25.5118 2.74479 28.3503L0 38.0294L10.2936 35.4335C13.1399 36.9275 16.331 37.7092 19.5735 37.7067H19.5832C30.2784 37.7067 38.9902 29.3255 39 19.0268C39.0022 16.5725 38.4996 14.1419 37.5214 11.8752C36.5431 9.60839 35.1108 7.55019 33.3023 5.81907ZM19.5735 34.5455C16.6822 34.5433 13.8445 33.7949 11.3562 32.3783L10.7686 32.0391L4.66198 33.5797L6.29269 27.8485L5.91072 27.2573C4.29423 24.7847 3.4393 21.9219 3.44506 19.0009C3.44506 10.4596 10.6853 3.49175 19.5832 3.49175C21.703 3.48809 23.8026 3.88814 25.7609 4.66882C27.7192 5.4495 29.4975 6.59538 30.9933 8.04039C32.494 9.48 33.6838 11.1911 34.494 13.075C35.3042 14.959 35.7188 16.9786 35.7141 19.0174C35.7043 27.5894 28.464 34.5455 19.5735 34.5455ZM28.4248 22.923C27.9425 22.6898 25.5601 21.5615 25.112 21.4013C24.6664 21.2482 24.3407 21.1681 24.0224 21.6345C23.6968 22.0985 22.7663 23.1562 22.4872 23.4601C22.2081 23.7734 21.9191 23.8087 21.4343 23.5778C20.952 23.3423 19.3874 22.8523 17.5363 21.2576C16.0917 20.0209 15.1245 18.4898 14.8356 18.0257C14.5564 17.5593 14.8086 17.3096 15.051 17.0764C15.2641 16.8691 15.5334 16.5299 15.7758 16.2614C16.0207 15.9929 16.1015 15.795 16.2606 15.484C16.4198 15.1684 16.3439 14.8999 16.2239 14.6667C16.1015 14.4335 15.1343 12.132 14.7254 11.2039C14.3336 10.2876 13.9345 10.4148 13.6358 10.403C13.3567 10.3866 13.031 10.3866 12.7054 10.3866C12.4595 10.3926 12.2175 10.4474 11.9946 10.5475C11.7718 10.6476 11.5728 10.7909 11.4101 10.9684C10.9645 11.4348 9.71817 12.5631 9.71817 14.8645C9.71817 17.1659 11.4566 19.3778 11.7015 19.6911C11.9414 20.0044 15.1147 24.7132 19.9848 26.739C21.1356 27.2219 22.0416 27.507 22.7492 27.7237C23.9122 28.0817 24.9626 28.0275 25.8 27.9121C26.7305 27.7755 28.6672 26.7814 29.0761 25.6908C29.4777 24.5978 29.4777 23.665 29.3553 23.4695C29.2353 23.2716 28.9097 23.1562 28.4248 22.923Z" fill="white"/>
</svg>
